ISO-10303-21;
HEADER;
FILE_DESCRIPTION (( 'STEP AP214' ),
    '1' );
FILE_NAME ('742792651.STEP',
    '2024-02-09T04:28:46',
    ( '' ),
    ( '' ),
    'SwSTEP 2.0',
    'SolidWorks 2021',
    '' );
FILE_SCHEMA (( 'AUTOMOTIVE_DESIGN' ));
ENDSEC;

DATA;
#1 = LINE ( 'NONE', #506, #257 ) ;
#2 = VECTOR ( 'NONE', #1004, 1000.000000000000000 ) ;
#3 = AXIS2_PLACEMENT_3D ( 'NONE', #137, #128, #1107 ) ;
#4 = ORIENTED_EDGE ( 'NONE', *, *, #817, .F. ) ;
#5 = FACE_OUTER_BOUND ( 'NONE', #382, .T. ) ;
#6 = CIRCLE ( 'NONE', #526, 0.03999999999999999389 ) ;
#7 = ORIENTED_EDGE ( 'NONE', *, *, #1092, .F. ) ;
#8 = DIRECTION ( 'NONE',  ( 0.000000000000000000, 0.000000000000000000, 1.000000000000000000 ) ) ;
#9 = ADVANCED_FACE ( 'NONE', ( #602 ), #282, .T. ) ;
#10 = ORIENTED_EDGE ( 'NONE', *, *, #295, .F. ) ;
#11 = FACE_OUTER_BOUND ( 'NONE', #1251, .T. ) ;
#12 = ADVANCED_FACE ( 'NONE', ( #493 ), #1095, .F. ) ;
#13 = LINE ( 'NONE', #101, #171 ) ;
#14 = FACE_OUTER_BOUND ( 'NONE', #957, .T. ) ;
#15 = DIRECTION ( 'NONE',  ( 1.355252715606880789E-16, 0.000000000000000000, -1.000000000000000000 ) ) ;
#16 = DIRECTION ( 'NONE',  ( 0.000000000000000000, 0.000000000000000000, -1.000000000000000000 ) ) ;
#17 = CARTESIAN_POINT ( 'NONE',  ( 0.7600000000000001199, 0.03999999999999999389, -0.3599999999999998201 ) ) ;
#18 = ORIENTED_EDGE ( 'NONE', *, *, #512, .T. ) ;
#19 = CARTESIAN_POINT ( 'NONE',  ( -0.8000000000000001554, 1.000000000000000000, -0.3599999999999998201 ) ) ;
#20 = EDGE_LOOP ( 'NONE', ( #72, #804, #125, #458 ) ) ;
#21 = AXIS2_PLACEMENT_3D ( 'NONE', #1276, #883, #1073 ) ;
#22 = PLANE ( 'NONE',  #819 ) ;
#23 = EDGE_CURVE ( 'NONE', #963, #674, #582, .T. ) ;
#24 = VECTOR ( 'NONE', #571, 1000.000000000000000 ) ;
#25 = CYLINDRICAL_SURFACE ( 'NONE', #787, 0.03999999999999999389 ) ;
#26 = AXIS2_PLACEMENT_3D ( 'NONE', #356, #649, #165 ) ;
#27 = DIRECTION ( 'NONE',  ( 1.000000000000000000, 0.000000000000000000, -8.673617379884036705E-17 ) ) ;
#28 = CARTESIAN_POINT ( 'NONE',  ( -0.5000000000000002220, 0.9600000000000000755, -0.3999999999999998002 ) ) ;
#29 = EDGE_CURVE ( 'NONE', #181, #597, #677, .T. ) ;
#30 = CIRCLE ( 'NONE', #592, 0.03999999999999999389 ) ;
#31 = CARTESIAN_POINT ( 'NONE',  ( 500000.0000000000582, 0.04000000000000021594, 0.3866666666232985716 ) ) ;
#32 = CARTESIAN_POINT ( 'NONE',  ( -0.5000000000000001110, 0.9600000000000000755, 0.3866666666666667140 ) ) ;
#33 = DIRECTION ( 'NONE',  ( -1.000000000000000000, 0.000000000000000000, 0.000000000000000000 ) ) ;
#34 = CARTESIAN_POINT ( 'NONE',  ( 0.7600000000000001199, 0.04000000000000000083, -0.3599999999999998201 ) ) ;
#35 = STYLED_ITEM ( 'NONE', ( #1074 ), #1022 ) ;
#36 = CARTESIAN_POINT ( 'NONE',  ( 0.8000000000000001554, 1.000000000000000000, -0.3599999999999998201 ) ) ;
#37 = DIRECTION ( 'NONE',  ( 1.000000000000000000, 0.000000000000000000, 1.355252715606882022E-16 ) ) ;
#38 = DIRECTION ( 'NONE',  ( 0.000000000000000000, -0.000000000000000000, 1.000000000000000000 ) ) ;
#39 = CARTESIAN_POINT ( 'NONE',  ( -0.5000000000000001110, 0.9600000000000000755, 0.3866666666666667695 ) ) ;
#40 = ADVANCED_FACE ( 'NONE', ( #14 ), #94, .F. ) ;
#41 = FACE_OUTER_BOUND ( 'NONE', #593, .T. ) ;
#42 = CIRCLE ( 'NONE', #681, 0.03999999999999999389 ) ;
#43 = SPHERICAL_SURFACE ( 'NONE', #478, 0.04000000000000000083 ) ;
#44 = COLOUR_RGB ( '',0.2509803921568627416, 0.2509803921568627416, 0.2509803921568627416 ) ;
#45 = AXIS2_PLACEMENT_3D ( 'NONE', #201, #1186, #1101 ) ;
#46 = DIRECTION ( 'NONE',  ( 0.000000000000000000, 0.000000000000000000, -1.000000000000000000 ) ) ;
#47 = AXIS2_PLACEMENT_3D ( 'NONE', #849, #869, #381 ) ;
#48 = VECTOR ( 'NONE', #742, 1000.000000000000000 ) ;
#49 = SURFACE_SIDE_STYLE ('',( #347 ) ) ;
#50 = DIRECTION ( 'NONE',  ( 0.000000000000000000, 0.000000000000000000, -1.000000000000000000 ) ) ;
#51 = EDGE_CURVE ( 'NONE', #583, #1127, #709, .T. ) ;
#52 = EDGE_LOOP ( 'NONE', ( #205, #18, #712, #600 ) ) ;
#53 = DIRECTION ( 'NONE',  ( 0.000000000000000000, 0.000000000000000000, 1.000000000000000000 ) ) ;
#54 = CYLINDRICAL_SURFACE ( 'NONE', #262, 0.03999999999999999389 ) ;
#55 = VECTOR ( 'NONE', #1103, 1000.000000000000000 ) ;
#56 = CARTESIAN_POINT ( 'NONE',  ( -0.8000000000000000444, 0.9600000000000000755, 0.3600000000000000977 ) ) ;
#57 = ORIENTED_EDGE ( 'NONE', *, *, #885, .F. ) ;
#58 = UNCERTAINTY_MEASURE_WITH_UNIT (LENGTH_MEASURE( 1.000000000000000082E-05 ), #919, 'distance_accuracy_value', 'NONE');
#59 = ORIENTED_EDGE ( 'NONE', *, *, #423, .T. ) ;
#60 = VERTEX_POINT ( 'NONE', #194 ) ;
#61 = LINE ( 'NONE', #732, #1248 ) ;
#62 = CARTESIAN_POINT ( 'NONE',  ( 0.5000000000000002220, 0.03999999999999999389, -0.3999999999999998002 ) ) ;
#63 = ADVANCED_FACE ( 'NONE', ( #217 ), #1268, .T. ) ;
#64 = ORIENTED_EDGE ( 'NONE', *, *, #745, .T. ) ;
#65 = CARTESIAN_POINT ( 'NONE',  ( 0.7600000000000001199, 0.03999999999999999389, -0.3999999999999998002 ) ) ;
#66 = EDGE_CURVE ( 'NONE', #565, #236, #42, .T. ) ;
#67 = AXIS2_PLACEMENT_3D ( 'NONE', #462, #1250, #350 ) ;
#68 = VERTEX_POINT ( 'NONE', #788 ) ;
#69 = AXIS2_PLACEMENT_3D ( 'NONE', #715, #1023, #1124 ) ;
#70 = EDGE_CURVE ( 'NONE', #68, #1193, #1003, .T. ) ;
#71 = AXIS2_PLACEMENT_3D ( 'NONE', #639, #226, #541 ) ;
#72 = ORIENTED_EDGE ( 'NONE', *, *, #817, .T. ) ;
#73 = LINE ( 'NONE', #437, #273 ) ;
#74 = DIRECTION ( 'NONE',  ( 0.000000000000000000, -0.000000000000000000, 1.000000000000000000 ) ) ;
#75 = DIRECTION ( 'NONE',  ( 1.355252715606880789E-16, -0.000000000000000000, 1.000000000000000000 ) ) ;
#76 = ORIENTED_EDGE ( 'NONE', *, *, #410, .T. ) ;
#77 = EDGE_LOOP ( 'NONE', ( #1260, #1055, #516, #352 ) ) ;
#78 = FACE_OUTER_BOUND ( 'NONE', #861, .T. ) ;
#79 = CARTESIAN_POINT ( 'NONE',  ( 0.5000000000000000000, 0.9600000000000000755, 0.4000000000000000777 ) ) ;
#80 = ORIENTED_EDGE ( 'NONE', *, *, #927, .F. ) ;
#81 = VERTEX_POINT ( 'NONE', #981 ) ;
#82 = CARTESIAN_POINT ( 'NONE',  ( 0.8000000000000000444, 1.000000000000000000, 0.3600000000000000422 ) ) ;
#83 = ORIENTED_EDGE ( 'NONE', *, *, #148, .F. ) ;
#84 = CARTESIAN_POINT ( 'NONE',  ( -0.5000000000000001110, 0.9866666666666666918, -0.3599999999999998201 ) ) ;
#85 = SHAPE_DEFINITION_REPRESENTATION ( #951, #243 ) ;
#86 = VERTEX_POINT ( 'NONE', #692 ) ;
#87 = AXIS2_PLACEMENT_3D ( 'NONE', #318, #645, #33 ) ;
#88 = ORIENTED_EDGE ( 'NONE', *, *, #344, .F. ) ;
#89 = VECTOR ( 'NONE', #409, 1000.000000000000000 ) ;
#90 = CYLINDRICAL_SURFACE ( 'NONE', #1038, 0.03999999999999999389 ) ;
#91 = ORIENTED_EDGE ( 'NONE', *, *, #471, .F. ) ;
#92 = LINE ( 'NONE', #1261, #502 ) ;
#93 = EDGE_CURVE ( 'NONE', #100, #304, #1087, .T. ) ;
#94 = PLANE ( 'NONE',  #21 ) ;
#95 = CARTESIAN_POINT ( 'NONE',  ( 0.5000000000000002220, 0.000000000000000000, -0.3599999999999998201 ) ) ;
#96 = ORIENTED_EDGE ( 'NONE', *, *, #1051, .T. ) ;
#97 = CARTESIAN_POINT ( 'NONE',  ( 0.4999999999881765689, 0.03999999999999999389, -0.3866666666666665475 ) ) ;
#98 = EDGE_CURVE ( 'NONE', #396, #769, #450, .T. ) ;
#99 = AXIS2_PLACEMENT_3D ( 'NONE', #224, #1026, #1020 ) ;
#100 = VERTEX_POINT ( 'NONE', #435 ) ;
#101 = CARTESIAN_POINT ( 'NONE',  ( 0.000000000000000000, 0.000000000000000000, -0.3599999999999998201 ) ) ;
#102 = AXIS2_PLACEMENT_3D ( 'NONE', #803, #288, #211 ) ;
#103 = VERTEX_POINT ( 'NONE', #1016 ) ;
#104 = DIRECTION ( 'NONE',  ( 0.000000000000000000, 1.000000000000000000, 0.000000000000000000 ) ) ;
#105 = ORIENTED_EDGE ( 'NONE', *, *, #93, .T. ) ;
#106 = DIRECTION ( 'NONE',  ( 0.000000000000000000, 0.000000000000000000, 1.000000000000000000 ) ) ;
#107 = ORIENTED_EDGE ( 'NONE', *, *, #485, .F. ) ;
#108 = DIRECTION ( 'NONE',  ( 0.000000000000000000, 0.000000000000000000, 1.000000000000000000 ) ) ;
#109 = EDGE_CURVE ( 'NONE', #1193, #948, #783, .T. ) ;
#110 = DIRECTION ( 'NONE',  ( -1.000000000000000000, -0.000000000000000000, 8.673617379884036705E-17 ) ) ;
#111 = LINE ( 'NONE', #809, #892 ) ;
#112 = ORIENTED_EDGE ( 'NONE', *, *, #161, .T. ) ;
#113 = EDGE_CURVE ( 'NONE', #464, #304, #269, .T. ) ;
#114 = FACE_OUTER_BOUND ( 'NONE', #1132, .T. ) ;
#115 = AXIS2_PLACEMENT_3D ( 'NONE', #264, #406, #1188 ) ;
#116 = CARTESIAN_POINT ( 'NONE',  ( 0.7600000000000000089, 1.000000000000000000, 0.3600000000000000977 ) ) ;
#117 = DIRECTION ( 'NONE',  ( 0.000000000000000000, 0.000000000000000000, -1.000000000000000000 ) ) ;
#118 = LINE ( 'NONE', #716, #775 ) ;
#119 = VERTEX_POINT ( 'NONE', #1199 ) ;
#120 = MECHANICAL_DESIGN_GEOMETRIC_PRESENTATION_REPRESENTATION (  '', ( #768 ), #549 ) ;
#121 = CARTESIAN_POINT ( 'NONE',  ( -0.8000000000000001554, 1.000000000000000000, -0.3599999999999998201 ) ) ;
#122 = CARTESIAN_POINT ( 'NONE',  ( -0.8000000000000001554, 0.9600000000000000755, -0.3599999999999998201 ) ) ;
#123 = VERTEX_POINT ( 'NONE', #722 ) ;
#124 = DIRECTION ( 'NONE',  ( 0.000000000000000000, 0.000000000000000000, 1.000000000000000000 ) ) ;
#125 = ORIENTED_EDGE ( 'NONE', *, *, #1008, .T. ) ;
#126 = EDGE_CURVE ( 'NONE', #1159, #353, #1278, .T. ) ;
#127 = DIRECTION ( 'NONE',  ( 0.000000000000000000, 0.000000000000000000, 1.000000000000000000 ) ) ;
#128 = DIRECTION ( 'NONE',  ( 0.000000000000000000, -0.000000000000000000, -1.000000000000000000 ) ) ;
#129 =( NAMED_UNIT ( * ) SI_UNIT ( $, .STERADIAN. ) SOLID_ANGLE_UNIT ( ) );
#130 = VECTOR ( 'NONE', #514, 1000.000000000000000 ) ;
#131 = FACE_OUTER_BOUND ( 'NONE', #52, .T. ) ;
#132 = ADVANCED_FACE ( 'NONE', ( #227 ), #417, .T. ) ;
#133 = DIRECTION ( 'NONE',  ( 0.000000000000000000, -1.000000000000000000, 0.000000000000000000 ) ) ;
#134 = AXIS2_PLACEMENT_3D ( 'NONE', #908, #814, #141 ) ;
#135 = DIRECTION ( 'NONE',  ( 1.000000000000000000, 0.000000000000000000, 2.710505431213761578E-16 ) ) ;
#136 = CYLINDRICAL_SURFACE ( 'NONE', #139, 0.02666666666666669960 ) ;
#137 = CARTESIAN_POINT ( 'NONE',  ( -0.7600000000000001199, 0.04000000000000000083, -0.3599999999999998201 ) ) ;
#138 = SURFACE_STYLE_USAGE ( .BOTH. , #422 ) ;
#139 = AXIS2_PLACEMENT_3D ( 'NONE', #1001, #419, #127 ) ;
#140 = CARTESIAN_POINT ( 'NONE',  ( -0.7600000000000001199, 0.9600000000000000755, -0.3599999999999998201 ) ) ;
#141 = DIRECTION ( 'NONE',  ( 0.000000000000000000, 0.000000000000000000, 1.000000000000000000 ) ) ;
#142 = FILL_AREA_STYLE ('',( #1108 ) ) ;
#143 = EDGE_CURVE ( 'NONE', #969, #263, #965, .T. ) ;
#144 = DIRECTION ( 'NONE',  ( 0.000000000000000000, 1.000000000000000000, 0.000000000000000000 ) ) ;
#145 = DIRECTION ( 'NONE',  ( 1.000000000000000000, 0.000000000000000000, 2.710505431213761578E-16 ) ) ;
#146 = CARTESIAN_POINT ( 'NONE',  ( 0.5000000000000002220, 0.000000000000000000, -0.3999999999999998002 ) ) ;
#147 =( LENGTH_UNIT ( ) NAMED_UNIT ( * ) SI_UNIT ( .MILLI., .METRE. ) );
#148 = EDGE_CURVE ( 'NONE', #654, #1076, #1154, .T. ) ;
#149 = FACE_OUTER_BOUND ( 'NONE', #1245, .T. ) ;
#150 = AXIS2_PLACEMENT_3D ( 'NONE', #472, #675, #302 ) ;
#151 = DIRECTION ( 'NONE',  ( 0.000000000000000000, 0.000000000000000000, 1.000000000000000000 ) ) ;
#152 = VERTEX_POINT ( 'NONE', #931 ) ;
#153 = DIRECTION ( 'NONE',  ( 1.000000000000000000, -0.000000000000000000, 0.000000000000000000 ) ) ;
#154 = ORIENTED_EDGE ( 'NONE', *, *, #143, .T. ) ;
#155 = FACE_OUTER_BOUND ( 'NONE', #330, .T. ) ;
#156 = ADVANCED_FACE ( 'NONE', ( #530 ), #815, .T. ) ;
#157 = VECTOR ( 'NONE', #509, 1000.000000000000000 ) ;
#158 = DIRECTION ( 'NONE',  ( -1.000000000000000000, 0.000000000000000000, 1.355252715606882022E-16 ) ) ;
#159 = EDGE_CURVE ( 'NONE', #565, #769, #834, .T. ) ;
#160 = LINE ( 'NONE', #662, #1035 ) ;
#161 = EDGE_CURVE ( 'NONE', #152, #589, #1130, .T. ) ;
#162 = ORIENTED_EDGE ( 'NONE', *, *, #143, .F. ) ;
#163 = MANIFOLD_SOLID_BREP ( 'Boss-Extrude2', #286 ) ;
#164 = DIRECTION ( 'NONE',  ( -0.000000000000000000, -1.000000000000000000, -0.000000000000000000 ) ) ;
#165 = DIRECTION ( 'NONE',  ( 0.000000000000000000, 0.000000000000000000, 1.000000000000000000 ) ) ;
#166 = EDGE_CURVE ( 'NONE', #1252, #1114, #1125, .T. ) ;
#167 = AXIS2_PLACEMENT_3D ( 'NONE', #640, #1032, #325 ) ;
#168 = MANIFOLD_SOLID_BREP ( 'Mirror2', #313 ) ;
#169 = ORIENTED_EDGE ( 'NONE', *, *, #225, .T. ) ;
#170 =( LENGTH_UNIT ( ) NAMED_UNIT ( * ) SI_UNIT ( .MILLI., .METRE. ) );
#171 = VECTOR ( 'NONE', #801, 1000.000000000000000 ) ;
#172 = ORIENTED_EDGE ( 'NONE', *, *, #148, .T. ) ;
#173 = AXIS2_PLACEMENT_3D ( 'NONE', #894, #385, #877 ) ;
#174 = CIRCLE ( 'NONE', #504, 0.02666666666666664756 ) ;
#175 = ORIENTED_EDGE ( 'NONE', *, *, #1051, .F. ) ;
#176 = DIRECTION ( 'NONE',  ( -1.000000000000000000, -0.000000000000000000, 8.673617379884036705E-17 ) ) ;
#177 = ORIENTED_EDGE ( 'NONE', *, *, #430, .F. ) ;
#178 = CARTESIAN_POINT ( 'NONE',  ( 0.8000000000000001554, 0.03999999999999999389, -0.3599999999999998201 ) ) ;
#179 = APPLICATION_PROTOCOL_DEFINITION ( 'draft international standard', 'automotive_design', 1998, #1275 ) ;
#180 = ORIENTED_EDGE ( 'NONE', *, *, #781, .F. ) ;
#181 = VERTEX_POINT ( 'NONE', #725 ) ;
#182 = EDGE_CURVE ( 'NONE', #103, #749, #585, .T. ) ;
#183 = DIRECTION ( 'NONE',  ( 0.000000000000000000, 0.000000000000000000, -1.000000000000000000 ) ) ;
#184 = ORIENTED_EDGE ( 'NONE', *, *, #202, .T. ) ;
#185 = LINE ( 'NONE', #897, #1120 ) ;
#186 = DIRECTION ( 'NONE',  ( 0.000000000000000000, 0.000000000000000000, -1.000000000000000000 ) ) ;
#187 = STYLED_ITEM ( 'NONE', ( #808 ), #163 ) ;
#188 = ORIENTED_EDGE ( 'NONE', *, *, #717, .T. ) ;
#189 = AXIS2_PLACEMENT_3D ( 'NONE', #1138, #438, #1031 ) ;
#190 = DIRECTION ( 'NONE',  ( 1.000000000000000000, -0.000000000000000000, -0.000000000000000000 ) ) ;
#191 = EDGE_LOOP ( 'NONE', ( #180, #188, #1161, #1201 ) ) ;
#192 = CARTESIAN_POINT ( 'NONE',  ( -0.5000000000000001110, 0.04000000000000021594, 0.3866666666666667140 ) ) ;
#193 = VECTOR ( 'NONE', #1111, 1000.000000000000000 ) ;
#194 = CARTESIAN_POINT ( 'NONE',  ( 0.7600000000000000089, 0.03999999999999999389, 0.4000000000000000777 ) ) ;
#195 = DIRECTION ( 'NONE',  ( 0.000000000000000000, -1.000000000000000000, 0.000000000000000000 ) ) ;
#196 = ORIENTED_EDGE ( 'NONE', *, *, #909, .F. ) ;
#197 = ADVANCED_FACE ( 'NONE', ( #765 ), #1133, .T. ) ;
#198 = CARTESIAN_POINT ( 'NONE',  ( -0.5000000000000002220, 1.000000000000000000, -0.3999999999999998002 ) ) ;
#199 = CIRCLE ( 'NONE', #303, 0.03999999999999999389 ) ;
#200 = ORIENTED_EDGE ( 'NONE', *, *, #517, .F. ) ;
#201 = CARTESIAN_POINT ( 'NONE',  ( -0.8000000000000001554, 1.000000000000000000, -0.3999999999999998002 ) ) ;
#202 = EDGE_CURVE ( 'NONE', #589, #583, #632, .T. ) ;
#203 = CARTESIAN_POINT ( 'NONE',  ( 500000.0000000000582, 0.01333333333333334286, 0.3599999999566316777 ) ) ;
#204 = FACE_OUTER_BOUND ( 'NONE', #997, .T. ) ;
#205 = ORIENTED_EDGE ( 'NONE', *, *, #928, .F. ) ;
#206 = DIRECTION ( 'NONE',  ( 2.710505431213761578E-16, -0.000000000000000000, -1.000000000000000000 ) ) ;
#207 = ORIENTED_EDGE ( 'NONE', *, *, #748, .T. ) ;
#208 = CARTESIAN_POINT ( 'NONE',  ( 0.7600000000000001199, 0.000000000000000000, -0.3599999999999998201 ) ) ;
#209 = EDGE_CURVE ( 'NONE', #263, #754, #856, .T. ) ;
#210 = CARTESIAN_POINT ( 'NONE',  ( -0.8000000000000001554, 0.03999999999999999389, -0.3999999999999998002 ) ) ;
#211 = DIRECTION ( 'NONE',  ( 0.000000000000000000, 0.000000000000000000, 1.000000000000000000 ) ) ;
#212 = ORIENTED_EDGE ( 'NONE', *, *, #430, .T. ) ;
#213 = AXIS2_PLACEMENT_3D ( 'NONE', #364, #952, #260 ) ;
#214 = DIRECTION ( 'NONE',  ( 0.000000000000000000, -1.000000000000000000, 0.000000000000000000 ) ) ;
#215 = VECTOR ( 'NONE', #164, 1000.000000000000000 ) ;
#216 = CARTESIAN_POINT ( 'NONE',  ( -0.7600000000000001199, 0.03999999999999999389, -0.3599999999999998201 ) ) ;
#217 = FACE_OUTER_BOUND ( 'NONE', #1174, .T. ) ;
#218 = FACE_OUTER_BOUND ( 'NONE', #306, .T. ) ;
#219 = ORIENTED_EDGE ( 'NONE', *, *, #254, .T. ) ;
#220 = CARTESIAN_POINT ( 'NONE',  ( 0.5000000000000002220, 0.9600000000000000755, -0.3999999999999998002 ) ) ;
#221 = CARTESIAN_POINT ( 'NONE',  ( -0.5000000000000000000, 0.000000000000000000, 0.3599999999999998201 ) ) ;
#222 = CARTESIAN_POINT ( 'NONE',  ( 0.7600000000000000089, 0.000000000000000000, 0.3600000000000000977 ) ) ;
#223 = AXIS2_PLACEMENT_3D ( 'NONE', #603, #989, #15 ) ;
#224 = CARTESIAN_POINT ( 'NONE',  ( 0.4999999999881765689, 0.9600000000000000755, -0.3599999999999999312 ) ) ;
#225 = EDGE_CURVE ( 'NONE', #1159, #396, #667, .T. ) ;
#226 = DIRECTION ( 'NONE',  ( 1.000000000000000000, 0.000000000000000000, -8.673617379884036705E-17 ) ) ;
#227 = FACE_OUTER_BOUND ( 'NONE', #1194, .T. ) ;
#228 = PRESENTATION_STYLE_ASSIGNMENT (( #138 ) ) ;
#229 = ORIENTED_EDGE ( 'NONE', *, *, #1046, .T. ) ;
#230 = LINE ( 'NONE', #1116, #320 ) ;
#231 = VECTOR ( 'NONE', #982, 1000.000000000000000 ) ;
#232 = VECTOR ( 'NONE', #1037, 1000.000000000000000 ) ;
#233 = CARTESIAN_POINT ( 'NONE',  ( 0.8000000000000001554, 0.9600000000000000755, -0.3599999999999998201 ) ) ;
#234 = AXIS2_PLACEMENT_3D ( 'NONE', #1030, #429, #1206 ) ;
#235 = SURFACE_STYLE_FILL_AREA ( #142 ) ;
#236 = VERTEX_POINT ( 'NONE', #276 ) ;
#237 = CARTESIAN_POINT ( 'NONE',  ( 0.8000000000000000444, 0.03999999999999999389, 0.4000000000000000777 ) ) ;
#238 = EDGE_CURVE ( 'NONE', #100, #963, #1039, .T. ) ;
#239 = DIRECTION ( 'NONE',  ( 0.000000000000000000, 0.000000000000000000, -1.000000000000000000 ) ) ;
#240 = DIRECTION ( 'NONE',  ( 2.710505431213761578E-16, -0.000000000000000000, -1.000000000000000000 ) ) ;
#241 = EDGE_CURVE ( 'NONE', #374, #1076, #1061, .T. ) ;
#242 = ORIENTED_EDGE ( 'NONE', *, *, #885, .T. ) ;
#243 = ADVANCED_BREP_SHAPE_REPRESENTATION ( '742792651', ( #1022, #168, #163, #1265 ), #743 ) ;
#244 = CARTESIAN_POINT ( 'NONE',  ( -0.7600000000000001199, 1.000000000000000000, -0.3999999999999998002 ) ) ;
#245 = CARTESIAN_POINT ( 'NONE',  ( 0.4999999999881765689, 0.9600000000000000755, 0.3599999999999999867 ) ) ;
#246 = DIRECTION ( 'NONE',  ( 1.355252715606880789E-16, -0.000000000000000000, 1.000000000000000000 ) ) ;
#247 = CARTESIAN_POINT ( 'NONE',  ( -0.5000000000000000000, 1.000000000000000000, 0.4000000000000000777 ) ) ;
#248 = CARTESIAN_POINT ( 'NONE',  ( -0.5000000000000001110, 0.9866666666666666918, -0.3599999999999998201 ) ) ;
#249 = CIRCLE ( 'NONE', #1077, 0.03999999999999999389 ) ;
#250 = EDGE_LOOP ( 'NONE', ( #1271, #266, #1041, #497 ) ) ;
#251 = CARTESIAN_POINT ( 'NONE',  ( 0.000000000000000000, 0.000000000000000000, 0.000000000000000000 ) ) ;
#252 = AXIS2_PLACEMENT_3D ( 'NONE', #1249, #760, #756 ) ;
#253 = UNCERTAINTY_MEASURE_WITH_UNIT (LENGTH_MEASURE( 1.000000000000000082E-05 ), #772, 'distance_accuracy_value', 'NONE');
#254 = EDGE_CURVE ( 'NONE', #1076, #103, #160, .T. ) ;
#255 = VERTEX_POINT ( 'NONE', #956 ) ;
#256 =( NAMED_UNIT ( * ) SI_UNIT ( $, .STERADIAN. ) SOLID_ANGLE_UNIT ( ) );
#257 = VECTOR ( 'NONE', #190, 1000.000000000000000 ) ;
#258 = ADVANCED_FACE ( 'NONE', ( #577 ), #1160, .T. ) ;
#259 = LINE ( 'NONE', #1229, #48 ) ;
#260 = DIRECTION ( 'NONE',  ( 0.000000000000000000, 0.000000000000000000, 1.000000000000000000 ) ) ;
#261 = ORIENTED_EDGE ( 'NONE', *, *, #841, .F. ) ;
#262 = AXIS2_PLACEMENT_3D ( 'NONE', #543, #460, #443 ) ;
#263 = VERTEX_POINT ( 'NONE', #79 ) ;
#264 = CARTESIAN_POINT ( 'NONE',  ( 0.000000000000000000, 0.9600000000000000755, 0.3600000000000000977 ) ) ;
#265 = DIRECTION ( 'NONE',  ( -1.355252715606880789E-16, 0.000000000000000000, -1.000000000000000000 ) ) ;
#266 = ORIENTED_EDGE ( 'NONE', *, *, #159, .T. ) ;
#267 = ORIENTED_EDGE ( 'NONE', *, *, #937, .F. ) ;
#268 = CARTESIAN_POINT ( 'NONE',  ( 0.4999999999881765689, 0.03999999999999999389, 0.3599999999999999867 ) ) ;
#269 = CIRCLE ( 'NONE', #991, 0.02666666666666664756 ) ;
#270 = SURFACE_SIDE_STYLE ('',( #1146 ) ) ;
#271 = AXIS2_PLACEMENT_3D ( 'NONE', #378, #676, #108 ) ;
#272 = ORIENTED_EDGE ( 'NONE', *, *, #1092, .T. ) ;
#273 = VECTOR ( 'NONE', #678, 1000.000000000000000 ) ;
#274 = ORIENTED_EDGE ( 'NONE', *, *, #625, .F. ) ;
#275 = DIRECTION ( 'NONE',  ( 0.000000000000000000, -1.000000000000000000, 0.000000000000000000 ) ) ;
#276 = CARTESIAN_POINT ( 'NONE',  ( 0.7600000000000001199, 1.000000000000000000, -0.3599999999999998201 ) ) ;
#277 = ORIENTED_EDGE ( 'NONE', *, *, #70, .F. ) ;
#278 = EDGE_CURVE ( 'NONE', #505, #374, #249, .T. ) ;
#279 = FACE_OUTER_BOUND ( 'NONE', #377, .T. ) ;
#280 = CARTESIAN_POINT ( 'NONE',  ( -0.7600000000000000089, 0.03999999999999999389, 0.3600000000000000977 ) ) ;
#281 = ADVANCED_FACE ( 'NONE', ( #1255 ), #1067, .F. ) ;
#282 = PLANE ( 'NONE',  #827 ) ;
#283 = ORIENTED_EDGE ( 'NONE', *, *, #238, .F. ) ;
#284 = ORIENTED_EDGE ( 'NONE', *, *, #66, .F. ) ;
#285 = CARTESIAN_POINT ( 'NONE',  ( 0.7600000000000001199, 0.03999999999999999389, -0.3999999999999998002 ) ) ;
#286 = CLOSED_SHELL ( 'NONE', ( #9, #529, #696, #1075, #1042, #466, #1170, #63, #824, #934 ) ) ;
#287 = ORIENTED_EDGE ( 'NONE', *, *, #126, .T. ) ;
#288 = DIRECTION ( 'NONE',  ( -1.000000000000000000, -0.000000000000000000, -0.000000000000000000 ) ) ;
#289 = EDGE_CURVE ( 'NONE', #701, #424, #290, .T. ) ;
#290 = CIRCLE ( 'NONE', #1177, 0.03999999999999999389 ) ;
#291 = ORIENTED_EDGE ( 'NONE', *, *, #426, .F. ) ;
#292 = ADVANCED_FACE ( 'NONE', ( #455 ), #1086, .F. ) ;
#293 = CIRCLE ( 'NONE', #457, 0.03999999999999999389 ) ;
#294 = CARTESIAN_POINT ( 'NONE',  ( -0.8000000000000001554, 1.000000000000000000, -0.3999999999999998002 ) ) ;
#295 = EDGE_CURVE ( 'NONE', #597, #740, #1175, .T. ) ;
#296 = VERTEX_POINT ( 'NONE', #1164 ) ;
#297 = CARTESIAN_POINT ( 'NONE',  ( -0.5000000000000001110, 0.01333333333333334286, 0.3599999999999998201 ) ) ;
#298 = DIRECTION ( 'NONE',  ( 1.000000000000000000, 0.000000000000000000, 2.710505431213761578E-16 ) ) ;
#299 = CARTESIAN_POINT ( 'NONE',  ( -0.5000000000000002220, 0.000000000000000000, -0.3999999999999998002 ) ) ;
#300 = ORIENTED_EDGE ( 'NONE', *, *, #182, .F. ) ;
#301 = EDGE_CURVE ( 'NONE', #754, #1252, #711, .T. ) ;
#302 = DIRECTION ( 'NONE',  ( 0.000000000000000000, 0.000000000000000000, 1.000000000000000000 ) ) ;
#303 = AXIS2_PLACEMENT_3D ( 'NONE', #140, #518, #540 ) ;
#304 = VERTEX_POINT ( 'NONE', #297 ) ;
#305 = CARTESIAN_POINT ( 'NONE',  ( 0.7600000000000000089, 0.04000000000000000083, 0.3600000000000000977 ) ) ;
#306 = EDGE_LOOP ( 'NONE', ( #558, #671, #580 ) ) ;
#307 = LINE ( 'NONE', #412, #2 ) ;
#308 = ORIENTED_EDGE ( 'NONE', *, *, #447, .T. ) ;
#309 = LINE ( 'NONE', #1012, #193 ) ;
#310 = DIRECTION ( 'NONE',  ( 0.000000000000000000, 1.000000000000000000, 0.000000000000000000 ) ) ;
#311 = ORIENTED_EDGE ( 'NONE', *, *, #745, .F. ) ;
#312 = PLANE ( 'NONE',  #620 ) ;
#313 = CLOSED_SHELL ( 'NONE', ( #1216, #12, #975, #646, #734, #281, #999, #590, #867, #132, #794, #1021, #563, #258, #1136, #156, #1232, #959 ) ) ;
#314 = ORIENTED_EDGE ( 'NONE', *, *, #627, .F. ) ;
#315 = AXIS2_PLACEMENT_3D ( 'NONE', #305, #706, #875 ) ;
#316 = DIRECTION ( 'NONE',  ( 0.000000000000000000, -1.000000000000000000, 0.000000000000000000 ) ) ;
#317 = DIRECTION ( 'NONE',  ( -1.355252715606880789E-16, 0.000000000000000000, -1.000000000000000000 ) ) ;
#318 = CARTESIAN_POINT ( 'NONE',  ( 0.7600000000000000089, 0.9600000000000000755, 0.3600000000000000977 ) ) ;
#319 = DIRECTION ( 'NONE',  ( 0.000000000000000000, -0.000000000000000000, 1.000000000000000000 ) ) ;
#320 = VECTOR ( 'NONE', #408, 1000.000000000000000 ) ;
#321 = EDGE_LOOP ( 'NONE', ( #175, #1257, #508, #984 ) ) ;
#322 = EDGE_CURVE ( 'NONE', #701, #565, #607, .T. ) ;
#323 = LINE ( 'NONE', #237, #652 ) ;
#324 = LINE ( 'NONE', #513, #89 ) ;
#325 = DIRECTION ( 'NONE',  ( -1.000000000000000000, 0.000000000000000000, 0.000000000000000000 ) ) ;
#326 = CIRCLE ( 'NONE', #1006, 0.03999999999999999389 ) ;
#327 = CARTESIAN_POINT ( 'NONE',  ( 0.5000000000000000000, 1.000000000000000000, 0.3599999999999998201 ) ) ;
#328 = DIRECTION ( 'NONE',  ( -1.000000000000000000, -0.000000000000000000, 8.673617379884036705E-17 ) ) ;
#329 = DIRECTION ( 'NONE',  ( 0.000000000000000000, -1.000000000000000000, 0.000000000000000000 ) ) ;
#330 = EDGE_LOOP ( 'NONE', ( #283, #105, #785, #80 ) ) ;
#331 = ADVANCED_FACE ( 'NONE', ( #5 ), #778, .T. ) ;
#332 = ORIENTED_EDGE ( 'NONE', *, *, #51, .T. ) ;
#333 = CARTESIAN_POINT ( 'NONE',  ( 0.8000000000000000444, 0.03999999999999999389, 0.3600000000000000977 ) ) ;
#334 = CIRCLE ( 'NONE', #1222, 0.03999999999999999389 ) ;
#335 = CIRCLE ( 'NONE', #71, 0.02666666666666664756 ) ;
#336 = DIRECTION ( 'NONE',  ( 1.000000000000000000, -0.000000000000000000, 0.000000000000000000 ) ) ;
#337 = EDGE_CURVE ( 'NONE', #425, #912, #683, .T. ) ;
#338 = CARTESIAN_POINT ( 'NONE',  ( 0.5000000000000000000, 0.9600000000000000755, 0.3600000000000000977 ) ) ;
#339 = DIRECTION ( 'NONE',  ( 0.000000000000000000, 0.000000000000000000, -1.000000000000000000 ) ) ;
#340 = CARTESIAN_POINT ( 'NONE',  ( 500000.0000000000582, 0.9599999999999998535, -0.3866666667100345789 ) ) ;
#341 = DIRECTION ( 'NONE',  ( 1.000000000000000000, -0.000000000000000000, 0.000000000000000000 ) ) ;
#342 = CARTESIAN_POINT ( 'NONE',  ( -0.5000000000000001110, 0.01333333333333333245, 0.3599999999999998201 ) ) ;
#343 = PLANE ( 'NONE',  #741 ) ;
#344 = EDGE_CURVE ( 'NONE', #1159, #60, #761, .T. ) ;
#345 = DIRECTION ( 'NONE',  ( 1.000000000000000000, 0.000000000000000000, 0.000000000000000000 ) ) ;
#346 = AXIS2_PLACEMENT_3D ( 'NONE', #389, #605, #183 ) ;
#347 = SURFACE_STYLE_FILL_AREA ( #1234 ) ;
#348 = VECTOR ( 'NONE', #586, 1000.000000000000000 ) ;
#349 = LINE ( 'NONE', #930, #232 ) ;
#350 = DIRECTION ( 'NONE',  ( 0.000000000000000000, 0.000000000000000000, 1.000000000000000000 ) ) ;
#351 = UNCERTAINTY_MEASURE_WITH_UNIT (LENGTH_MEASURE( 1.000000000000000082E-05 ), #920, 'distance_accuracy_value', 'NONE');
#352 = ORIENTED_EDGE ( 'NONE', *, *, #922, .F. ) ;
#353 = VERTEX_POINT ( 'NONE', #995 ) ;
#354 = FACE_OUTER_BOUND ( 'NONE', #811, .T. ) ;
#355 = VECTOR ( 'NONE', #1195, 1000.000000000000000 ) ;
#356 = CARTESIAN_POINT ( 'NONE',  ( -0.7600000000000000089, 0.9600000000000000755, 0.3600000000000000977 ) ) ;
#357 = ORIENTED_EDGE ( 'NONE', *, *, #781, .T. ) ;
#358 = DIRECTION ( 'NONE',  ( -1.355252715606880789E-16, 0.000000000000000000, 1.000000000000000000 ) ) ;
#359 = VERTEX_POINT ( 'NONE', #507 ) ;
#360 = ORIENTED_EDGE ( 'NONE', *, *, #887, .T. ) ;
#361 = CARTESIAN_POINT ( 'NONE',  ( 0.7600000000000000089, 0.9600000000000000755, 0.3600000000000000977 ) ) ;
#362 = PRODUCT ( '742792651', '742792651', '', ( #379 ) ) ;
#363 = ORIENTED_EDGE ( 'NONE', *, *, #1063, .F. ) ;
#364 = CARTESIAN_POINT ( 'NONE',  ( -0.5000000000000000000, 0.9600000000000000755, 0.3600000000000000977 ) ) ;
#365 = ORIENTED_EDGE ( 'NONE', *, *, #93, .F. ) ;
#366 = EDGE_LOOP ( 'NONE', ( #782, #792, #868 ) ) ;
#367 = PLANE ( 'NONE',  #1178 ) ;
#368 = ORIENTED_EDGE ( 'NONE', *, *, #572, .T. ) ;
#369 = COLOUR_RGB ( '',0.7921568627450980005, 0.8196078431372548767, 0.9333333333333333481 ) ;
#370 =( NAMED_UNIT ( * ) PLANE_ANGLE_UNIT ( ) SI_UNIT ( $, .RADIAN. ) );
#371 = EDGE_CURVE ( 'NONE', #459, #425, #1094, .T. ) ;
#372 = VECTOR ( 'NONE', #468, 1000.000000000000000 ) ;
#373 = ORIENTED_EDGE ( 'NONE', *, *, #978, .T. ) ;
#374 = VERTEX_POINT ( 'NONE', #1191 ) ;
#375 = LINE ( 'NONE', #575, #531 ) ;
#376 = APPLICATION_CONTEXT ( 'automotive_design' ) ;
#377 = EDGE_LOOP ( 'NONE', ( #88, #287, #859 ) ) ;
#378 = CARTESIAN_POINT ( 'NONE',  ( 0.5000000000000000000, 0.03999999999999999389, 0.3600000000000000977 ) ) ;
#379 = PRODUCT_CONTEXT ( 'NONE', #376, 'mechanical' ) ;
#380 = EDGE_LOOP ( 'NONE', ( #574, #308, #7, #332 ) ) ;
#381 = DIRECTION ( 'NONE',  ( 0.000000000000000000, 0.000000000000000000, 1.000000000000000000 ) ) ;
#382 = EDGE_LOOP ( 'NONE', ( #737, #407, #91, #1179 ) ) ;
#383 = CARTESIAN_POINT ( 'NONE',  ( -0.5000000000000001110, 0.03999999999999999389, -0.3599999999999998201 ) ) ;
#384 = DIRECTION ( 'NONE',  ( 0.000000000000000000, 0.000000000000000000, 1.000000000000000000 ) ) ;
#385 = DIRECTION ( 'NONE',  ( 0.000000000000000000, 1.000000000000000000, 0.000000000000000000 ) ) ;
#386 = EDGE_CURVE ( 'NONE', #1127, #886, #1219, .T. ) ;
#387 = ORIENTED_EDGE ( 'NONE', *, *, #980, .T. ) ;
#388 = ADVANCED_FACE ( 'NONE', ( #881 ), #786, .T. ) ;
#389 = CARTESIAN_POINT ( 'NONE',  ( 0.7600000000000000089, 0.03999999999999999389, 0.3600000000000000977 ) ) ;
#390 = ORIENTED_EDGE ( 'NONE', *, *, #301, .F. ) ;
#391 = DIRECTION ( 'NONE',  ( 1.000000000000000000, 0.000000000000000000, 0.000000000000000000 ) ) ;
#392 = AXIS2_PLACEMENT_3D ( 'NONE', #245, #915, #46 ) ;
#393 = DIRECTION ( 'NONE',  ( -1.000000000000000000, -0.000000000000000000, 8.673617379884036705E-17 ) ) ;
#394 = DIRECTION ( 'NONE',  ( 1.000000000000000000, 0.000000000000000000, 0.000000000000000000 ) ) ;
#395 = CIRCLE ( 'NONE', #173, 0.03999999999999999389 ) ;
#396 = VERTEX_POINT ( 'NONE', #208 ) ;
#397 = DIRECTION ( 'NONE',  ( -0.000000000000000000, 1.000000000000000000, -0.000000000000000000 ) ) ;
#398 = ORIENTED_EDGE ( 'NONE', *, *, #1165, .T. ) ;
#399 = DIRECTION ( 'NONE',  ( -1.000000000000000000, -0.000000000000000000, 8.673617379884036705E-17 ) ) ;
#400 = ORIENTED_EDGE ( 'NONE', *, *, #829, .T. ) ;
#401 = CARTESIAN_POINT ( 'NONE',  ( 0.7600000000000001199, 0.9600000000000000755, -0.3599999999999998201 ) ) ;
#402 = EDGE_LOOP ( 'NONE', ( #1172, #718, #267 ) ) ;
#403 = FACE_OUTER_BOUND ( 'NONE', #889, .T. ) ;
#404 = CARTESIAN_POINT ( 'NONE',  ( 0.5000000000000002220, 0.9600000000000000755, -0.3999999999999998002 ) ) ;
#405 = ORIENTED_EDGE ( 'NONE', *, *, #717, .F. ) ;
#406 = DIRECTION ( 'NONE',  ( -1.000000000000000000, 0.000000000000000000, 0.000000000000000000 ) ) ;
#407 = ORIENTED_EDGE ( 'NONE', *, *, #806, .F. ) ;
#408 = DIRECTION ( 'NONE',  ( 1.000000000000000000, 0.000000000000000000, 0.000000000000000000 ) ) ;
#409 = DIRECTION ( 'NONE',  ( 0.000000000000000000, -1.000000000000000000, 0.000000000000000000 ) ) ;
#410 = EDGE_CURVE ( 'NONE', #948, #1242, #185, .T. ) ;
#411 = DIRECTION ( 'NONE',  ( -0.000000000000000000, 0.000000000000000000, -1.000000000000000000 ) ) ;
#412 = CARTESIAN_POINT ( 'NONE',  ( 0.8000000000000000444, 0.9600000000000000755, 0.4000000000000000777 ) ) ;
#413 = ORIENTED_EDGE ( 'NONE', *, *, #98, .T. ) ;
#414 = AXIS2_PLACEMENT_3D ( 'NONE', #621, #411, #546 ) ;
#415 = CYLINDRICAL_SURFACE ( 'NONE', #482, 0.03999999999999999389 ) ;
#416 = AXIS2_PLACEMENT_3D ( 'NONE', #860, #151, #555 ) ;
#417 = SPHERICAL_SURFACE ( 'NONE', #87, 0.04000000000000000083 ) ;
#418 = CARTESIAN_POINT ( 'NONE',  ( 0.5000000000000000000, 0.000000000000000000, 0.3599999999999998201 ) ) ;
#419 = DIRECTION ( 'NONE',  ( -1.000000000000000000, -0.000000000000000000, 8.673617379884036705E-17 ) ) ;
#420 = CARTESIAN_POINT ( 'NONE',  ( -0.7600000000000000089, 0.04000000000000000083, 0.3600000000000000977 ) ) ;
#421 = AXIS2_PLACEMENT_3D ( 'NONE', #1043, #1036, #972 ) ;
#422 = SURFACE_SIDE_STYLE ('',( #1113 ) ) ;
#423 = EDGE_CURVE ( 'NONE', #68, #703, #1266, .T. ) ;
#424 = VERTEX_POINT ( 'NONE', #116 ) ;
#425 = VERTEX_POINT ( 'NONE', #796 ) ;
#426 = EDGE_CURVE ( 'NONE', #396, #1114, #13, .T. ) ;
#427 = DIRECTION ( 'NONE',  ( -1.000000000000000000, 0.000000000000000000, 0.000000000000000000 ) ) ;
#428 = DIRECTION ( 'NONE',  ( -8.673617379884036705E-17, 0.000000000000000000, -1.000000000000000000 ) ) ;
#429 = DIRECTION ( 'NONE',  ( 0.000000000000000000, -1.000000000000000000, 0.000000000000000000 ) ) ;
#430 = EDGE_CURVE ( 'NONE', #703, #764, #584, .T. ) ;
#431 = VECTOR ( 'NONE', #240, 1000.000000000000000 ) ;
#432 =( GEOMETRIC_REPRESENTATION_CONTEXT ( 3 ) GLOBAL_UNCERTAINTY_ASSIGNED_CONTEXT ( ( #1040 ) ) GLOBAL_UNIT_ASSIGNED_CONTEXT ( ( #170, #370, #446 ) ) REPRESENTATION_CONTEXT ( 'NONE', 'WORKASPACE' ) );
#433 = CIRCLE ( 'NONE', #69, 0.03999999999999999389 ) ;
#434 = DIRECTION ( 'NONE',  ( 1.000000000000000000, 0.000000000000000000, 0.000000000000000000 ) ) ;
#435 = CARTESIAN_POINT ( 'NONE',  ( 0.4999999999881765689, 0.01333333333333334286, 0.3599999999999997091 ) ) ;
#436 = DIRECTION ( 'NONE',  ( 0.000000000000000000, 0.000000000000000000, 1.000000000000000000 ) ) ;
#437 = CARTESIAN_POINT ( 'NONE',  ( 0.5000000000000002220, 1.000000000000000000, -0.3999999999999998002 ) ) ;
#438 = DIRECTION ( 'NONE',  ( 8.673617379884036705E-17, -0.000000000000000000, 1.000000000000000000 ) ) ;
#439 = ORIENTED_EDGE ( 'NONE', *, *, #238, .T. ) ;
#440 = DIRECTION ( 'NONE',  ( -1.000000000000000000, 0.000000000000000000, 0.000000000000000000 ) ) ;
#441 = APPLICATION_PROTOCOL_DEFINITION ( 'draft international standard', 'automotive_design', 1998, #376 ) ;
#442 = AXIS2_PLACEMENT_3D ( 'NONE', #401, #1173, #780 ) ;
#443 = DIRECTION ( 'NONE',  ( 0.000000000000000000, 0.000000000000000000, 1.000000000000000000 ) ) ;
#444 = CARTESIAN_POINT ( 'NONE',  ( 500000.0000000000582, 0.03999999999999999389, -0.3866666667100345789 ) ) ;
#445 = ORIENTED_EDGE ( 'NONE', *, *, #660, .F. ) ;
#446 =( NAMED_UNIT ( * ) SI_UNIT ( $, .STERADIAN. ) SOLID_ANGLE_UNIT ( ) );
#447 = EDGE_CURVE ( 'NONE', #1048, #1263, #92, .T. ) ;
#448 = EDGE_LOOP ( 'NONE', ( #284, #1104, #746 ) ) ;
#449 = ORIENTED_EDGE ( 'NONE', *, *, #1115, .F. ) ;
#450 = CIRCLE ( 'NONE', #707, 0.03999999999999999389 ) ;
#451 = LINE ( 'NONE', #247, #215 ) ;
#452 = CARTESIAN_POINT ( 'NONE',  ( -0.8000000000000001554, 0.03999999999999999389, -0.3599999999999998201 ) ) ;
#453 = VECTOR ( 'NONE', #1151, 1000.000000000000000 ) ;
#454 = ORIENTED_EDGE ( 'NONE', *, *, #463, .F. ) ;
#455 = FACE_OUTER_BOUND ( 'NONE', #576, .T. ) ;
#456 = AXIS2_PLACEMENT_3D ( 'NONE', #733, #336, #1002 ) ;
#457 = AXIS2_PLACEMENT_3D ( 'NONE', #828, #641, #53 ) ;
#458 = ORIENTED_EDGE ( 'NONE', *, *, #426, .T. ) ;
#459 = VERTEX_POINT ( 'NONE', #285 ) ;
#460 = DIRECTION ( 'NONE',  ( 1.000000000000000000, 0.000000000000000000, 0.000000000000000000 ) ) ;
#461 = DIRECTION ( 'NONE',  ( 0.000000000000000000, -1.000000000000000000, 0.000000000000000000 ) ) ;
#462 = CARTESIAN_POINT ( 'NONE',  ( -0.5000000000000000000, 0.03999999999999999389, 0.3600000000000000977 ) ) ;
#463 = EDGE_CURVE ( 'NONE', #255, #669, #864, .T. ) ;
#464 = VERTEX_POINT ( 'NONE', #192 ) ;
#465 = ORIENTED_EDGE ( 'NONE', *, *, #791, .T. ) ;
#466 = ADVANCED_FACE ( 'NONE', ( #1274 ), #626, .T. ) ;
#467 = LINE ( 'NONE', #244, #588 ) ;
#468 = DIRECTION ( 'NONE',  ( 1.355252715606880789E-16, -0.000000000000000000, 1.000000000000000000 ) ) ;
#469 = ORIENTED_EDGE ( 'NONE', *, *, #1105, .F. ) ;
#470 = ORIENTED_EDGE ( 'NONE', *, *, #847, .T. ) ;
#471 = EDGE_CURVE ( 'NONE', #374, #86, #525, .T. ) ;
#472 = CARTESIAN_POINT ( 'NONE',  ( -0.7600000000000000089, 0.9600000000000000755, 0.3600000000000000977 ) ) ;
#473 = AXIS2_PLACEMENT_3D ( 'NONE', #1081, #186, #988 ) ;
#474 = MECHANICAL_DESIGN_GEOMETRIC_PRESENTATION_REPRESENTATION (  '', ( #1099 ), #432 ) ;
#475 = DIRECTION ( 'NONE',  ( 0.000000000000000000, 0.000000000000000000, 1.000000000000000000 ) ) ;
#476 = VECTOR ( 'NONE', #757, 1000.000000000000000 ) ;
#477 = ORIENTED_EDGE ( 'NONE', *, *, #1059, .F. ) ;
#478 = AXIS2_PLACEMENT_3D ( 'NONE', #520, #1027, #434 ) ;
#479 = ORIENTED_EDGE ( 'NONE', *, *, #301, .T. ) ;
#480 = EDGE_CURVE ( 'NONE', #797, #703, #335, .T. ) ;
#481 = SPHERICAL_SURFACE ( 'NONE', #1262, 0.04000000000000000083 ) ;
#482 = AXIS2_PLACEMENT_3D ( 'NONE', #333, #633, #1123 ) ;
#483 = ORIENTED_EDGE ( 'NONE', *, *, #322, .F. ) ;
#484 = DIRECTION ( 'NONE',  ( 1.000000000000000000, 0.000000000000000000, 0.000000000000000000 ) ) ;
#485 = EDGE_CURVE ( 'NONE', #1242, #464, #615, .T. ) ;
#486 = EDGE_LOOP ( 'NONE', ( #200, #76, #559, #196 ) ) ;
#487 = DIRECTION ( 'NONE',  ( 1.000000000000000000, -0.000000000000000000, -2.710505431213761578E-16 ) ) ;
#488 = ORIENTED_EDGE ( 'NONE', *, *, #1253, .F. ) ;
#489 = AXIS2_PLACEMENT_3D ( 'NONE', #704, #902, #16 ) ;
#490 = DIRECTION ( 'NONE',  ( 0.000000000000000000, 0.000000000000000000, -1.000000000000000000 ) ) ;
#491 = ORIENTED_EDGE ( 'NONE', *, *, #627, .T. ) ;
#492 = DIRECTION ( 'NONE',  ( 0.000000000000000000, 0.000000000000000000, -1.000000000000000000 ) ) ;
#493 = FACE_OUTER_BOUND ( 'NONE', #617, .T. ) ;
#494 = DIRECTION ( 'NONE',  ( -1.000000000000000000, 0.000000000000000000, 8.673617379884036705E-17 ) ) ;
#495 = EDGE_LOOP ( 'NONE', ( #795, #953, #630, #1097 ) ) ;
#496 = CARTESIAN_POINT ( 'NONE',  ( 500000.0000000000582, 0.9866666666666666918, -0.3600000000433679626 ) ) ;
#497 = ORIENTED_EDGE ( 'NONE', *, *, #371, .T. ) ;
#498 = DIRECTION ( 'NONE',  ( -0.000000000000000000, 1.000000000000000000, -0.000000000000000000 ) ) ;
#499 = VECTOR ( 'NONE', #341, 1000.000000000000000 ) ;
#500 = ORIENTED_EDGE ( 'NONE', *, *, #289, .F. ) ;
#501 = DIRECTION ( 'NONE',  ( 0.000000000000000000, 1.000000000000000000, 0.000000000000000000 ) ) ;
#502 = VECTOR ( 'NONE', #594, 1000.000000000000000 ) ;
#503 = VECTOR ( 'NONE', #339, 1000.000000000000000 ) ;
#504 = AXIS2_PLACEMENT_3D ( 'NONE', #268, #145, #50 ) ;
#505 = VERTEX_POINT ( 'NONE', #122 ) ;
#506 = CARTESIAN_POINT ( 'NONE',  ( -0.5000000000000002220, 0.9600000000000000755, -0.3999999999999998002 ) ) ;
#507 = CARTESIAN_POINT ( 'NONE',  ( 0.4999999999881765689, 0.9599999999999998535, -0.3866666666666665475 ) ) ;
#508 = ORIENTED_EDGE ( 'NONE', *, *, #371, .F. ) ;
#509 = DIRECTION ( 'NONE',  ( -1.000000000000000000, 0.000000000000000000, 0.000000000000000000 ) ) ;
#510 = ORIENTED_EDGE ( 'NONE', *, *, #109, .F. ) ;
#511 = CARTESIAN_POINT ( 'NONE',  ( 0.7600000000000001199, 1.000000000000000000, -0.3599999999999998201 ) ) ;
#512 = EDGE_CURVE ( 'NONE', #359, #797, #1204, .T. ) ;
#513 = CARTESIAN_POINT ( 'NONE',  ( 0.4999999999881765689, 0.9600000000000000755, 0.3866666666666666030 ) ) ;
#514 = DIRECTION ( 'NONE',  ( -2.710505431213761578E-16, 0.000000000000000000, 1.000000000000000000 ) ) ;
#515 = CARTESIAN_POINT ( 'NONE',  ( 0.8000000000000001554, 0.03999999999999999389, -0.3599999999999998201 ) ) ;
#516 = ORIENTED_EDGE ( 'NONE', *, *, #295, .T. ) ;
#517 = EDGE_CURVE ( 'NONE', #948, #123, #324, .T. ) ;
#518 = DIRECTION ( 'NONE',  ( -0.000000000000000000, -1.000000000000000000, -0.000000000000000000 ) ) ;
#519 = PRODUCT_DEFINITION_FORMATION_WITH_SPECIFIED_SOURCE ( 'ANY', '', #362, .NOT_KNOWN. ) ;
#520 = CARTESIAN_POINT ( 'NONE',  ( -0.7600000000000001199, 0.9600000000000000755, -0.3599999999999998201 ) ) ;
#521 = CARTESIAN_POINT ( 'NONE',  ( -0.8000000000000001554, 0.03999999999999999389, -0.3999999999999998002 ) ) ;
#522 = VECTOR ( 'NONE', #899, 1000.000000000000000 ) ;
#523 = AXIS2_PLACEMENT_3D ( 'NONE', #1140, #75, #936 ) ;
#524 = FACE_OUTER_BOUND ( 'NONE', #250, .T. ) ;
#525 = CIRCLE ( 'NONE', #850, 0.03999999999999999389 ) ;
#526 = AXIS2_PLACEMENT_3D ( 'NONE', #637, #932, #436 ) ;
#527 = ADVANCED_FACE ( 'NONE', ( #1013 ), #43, .T. ) ;
#528 = DIRECTION ( 'NONE',  ( 1.000000000000000000, 0.000000000000000000, -8.673617379884036705E-17 ) ) ;
#529 = ADVANCED_FACE ( 'NONE', ( #721 ), #903, .F. ) ;
#530 = FACE_OUTER_BOUND ( 'NONE', #448, .T. ) ;
#531 = VECTOR ( 'NONE', #680, 1000.000000000000000 ) ;
#532 = ADVANCED_FACE ( 'NONE', ( #1226 ), #1129, .T. ) ;
#533 = ORIENTED_EDGE ( 'NONE', *, *, #1208, .F. ) ;
#534 = LINE ( 'NONE', #614, #747 ) ;
#535 = DIRECTION ( 'NONE',  ( -1.000000000000000000, 0.000000000000000000, 0.000000000000000000 ) ) ;
#536 = CIRCLE ( 'NONE', #489, 0.02666666666666669960 ) ;
#537 = EDGE_CURVE ( 'NONE', #459, #769, #1198, .T. ) ;
#538 = CARTESIAN_POINT ( 'NONE',  ( -0.5000000000000001110, 0.03999999999999999389, 0.3600000000000000977 ) ) ;
#539 = ORIENTED_EDGE ( 'NONE', *, *, #806, .T. ) ;
#540 = DIRECTION ( 'NONE',  ( 0.000000000000000000, 0.000000000000000000, 1.000000000000000000 ) ) ;
#541 = DIRECTION ( 'NONE',  ( 0.000000000000000000, 0.000000000000000000, -1.000000000000000000 ) ) ;
#542 = DIRECTION ( 'NONE',  ( 0.000000000000000000, 0.000000000000000000, -1.000000000000000000 ) ) ;
#543 = CARTESIAN_POINT ( 'NONE',  ( 0.000000000000000000, 0.9600000000000000755, 0.3600000000000000977 ) ) ;
#544 = AXIS2_PLACEMENT_3D ( 'NONE', #280, #962, #484 ) ;
#545 = CARTESIAN_POINT ( 'NONE',  ( -0.7600000000000001199, 0.03999999999999999389, -0.3999999999999998002 ) ) ;
#546 = DIRECTION ( 'NONE',  ( 1.000000000000000000, 0.000000000000000000, 0.000000000000000000 ) ) ;
#547 = DIRECTION ( 'NONE',  ( -1.000000000000000000, 0.000000000000000000, 0.000000000000000000 ) ) ;
#548 = CYLINDRICAL_SURFACE ( 'NONE', #47, 0.02666666666666664756 ) ;
#549 =( GEOMETRIC_REPRESENTATION_CONTEXT ( 3 ) GLOBAL_UNCERTAINTY_ASSIGNED_CONTEXT ( ( #351 ) ) GLOBAL_UNIT_ASSIGNED_CONTEXT ( ( #920, #1221, #1126 ) ) REPRESENTATION_CONTEXT ( 'NONE', 'WORKASPACE' ) );
#550 = DIRECTION ( 'NONE',  ( -1.355252715606880789E-16, 0.000000000000000000, 1.000000000000000000 ) ) ;
#551 = ADVANCED_FACE ( 'NONE', ( #914 ), #619, .T. ) ;
#552 = DIRECTION ( 'NONE',  ( -1.000000000000000000, 0.000000000000000000, 0.000000000000000000 ) ) ;
#553 = ORIENTED_EDGE ( 'NONE', *, *, #166, .F. ) ;
#554 = DIRECTION ( 'NONE',  ( 0.000000000000000000, -0.000000000000000000, 1.000000000000000000 ) ) ;
#555 = DIRECTION ( 'NONE',  ( -1.000000000000000000, 0.000000000000000000, 0.000000000000000000 ) ) ;
#556 = CARTESIAN_POINT ( 'NONE',  ( 0.7600000000000000089, 0.9600000000000000755, 0.3600000000000000977 ) ) ;
#557 = AXIS2_PLACEMENT_3D ( 'NONE', #294, #670, #1065 ) ;
#558 = ORIENTED_EDGE ( 'NONE', *, *, #1008, .F. ) ;
#559 = ORIENTED_EDGE ( 'NONE', *, *, #485, .T. ) ;
#560 = CYLINDRICAL_SURFACE ( 'NONE', #421, 0.03999999999999999389 ) ;
#561 = VECTOR ( 'NONE', #329, 1000.000000000000000 ) ;
#562 = CARTESIAN_POINT ( 'NONE',  ( 0.7600000000000000089, 0.9600000000000000755, 0.4000000000000000777 ) ) ;
#563 = ADVANCED_FACE ( 'NONE', ( #724 ), #807, .T. ) ;
#564 = AXIS2_PLACEMENT_3D ( 'NONE', #420, #731, #820 ) ;
#565 = VERTEX_POINT ( 'NONE', #233 ) ;
#566 = SURFACE_STYLE_USAGE ( .BOTH. , #270 ) ;
#567 = ORIENTED_EDGE ( 'NONE', *, *, #980, .F. ) ;
#568 = EDGE_CURVE ( 'NONE', #1127, #1048, #1118, .T. ) ;
#569 = EDGE_LOOP ( 'NONE', ( #1005, #169, #413, #727 ) ) ;
#570 = FACE_OUTER_BOUND ( 'NONE', #191, .T. ) ;
#571 = DIRECTION ( 'NONE',  ( 0.000000000000000000, -1.000000000000000000, -0.000000000000000000 ) ) ;
#572 = EDGE_CURVE ( 'NONE', #701, #606, #433, .T. ) ;
#573 = ORIENTED_EDGE ( 'NONE', *, *, #708, .T. ) ;
#574 = ORIENTED_EDGE ( 'NONE', *, *, #568, .T. ) ;
#575 = CARTESIAN_POINT ( 'NONE',  ( 0.000000000000000000, 0.000000000000000000, 0.3600000000000000977 ) ) ;
#576 = EDGE_LOOP ( 'NONE', ( #1237, #1069, #1090, #668 ) ) ;
#577 = FACE_OUTER_BOUND ( 'NONE', #569, .T. ) ;
#578 = ORIENTED_EDGE ( 'NONE', *, *, #241, .T. ) ;
#579 = EDGE_CURVE ( 'NONE', #1048, #740, #1157, .T. ) ;
#580 = ORIENTED_EDGE ( 'NONE', *, *, #98, .F. ) ;
#581 = LINE ( 'NONE', #82, #973 ) ;
#582 = CIRCLE ( 'NONE', #845, 0.02666666666666664756 ) ;
#583 = VERTEX_POINT ( 'NONE', #221 ) ;
#584 = LINE ( 'NONE', #84, #890 ) ;
#585 = CIRCLE ( 'NONE', #213, 0.03999999999999999389 ) ;
#586 = DIRECTION ( 'NONE',  ( -1.000000000000000000, 0.000000000000000000, -0.000000000000000000 ) ) ;
#587 = CARTESIAN_POINT ( 'NONE',  ( 0.7600000000000001199, 0.03999999999999999389, -0.3599999999999998201 ) ) ;
#588 = VECTOR ( 'NONE', #661, 1000.000000000000000 ) ;
#589 = VERTEX_POINT ( 'NONE', #1009 ) ;
#590 = ADVANCED_FACE ( 'NONE', ( #918 ), #25, .T. ) ;
#591 = DIRECTION ( 'NONE',  ( 0.000000000000000000, -0.000000000000000000, -1.000000000000000000 ) ) ;
#592 = AXIS2_PLACEMENT_3D ( 'NONE', #1163, #1184, #106 ) ;
#593 = EDGE_LOOP ( 'NONE', ( #553, #390, #901, #162, #64, #363, #96, #4 ) ) ;
#594 = DIRECTION ( 'NONE',  ( 1.000000000000000000, -0.000000000000000000, -0.000000000000000000 ) ) ;
#595 = DIRECTION ( 'NONE',  ( 1.000000000000000000, 0.000000000000000000, 0.000000000000000000 ) ) ;
#596 = LINE ( 'NONE', #884, #157 ) ;
#597 = VERTEX_POINT ( 'NONE', #545 ) ;
#598 = AXIS2_PLACEMENT_3D ( 'NONE', #587, #839, #643 ) ;
#599 = CARTESIAN_POINT ( 'NONE',  ( 0.5000000000000000000, 0.03999999999999999389, 0.4000000000000000777 ) ) ;
#600 = ORIENTED_EDGE ( 'NONE', *, *, #423, .F. ) ;
#601 = CARTESIAN_POINT ( 'NONE',  ( 0.8000000000000001554, 0.9600000000000000755, -0.3999999999999998002 ) ) ;
#602 = FACE_OUTER_BOUND ( 'NONE', #694, .T. ) ;
#603 = CARTESIAN_POINT ( 'NONE',  ( 0.8000000000000001554, 1.000000000000000000, -0.3999999999999998002 ) ) ;
#604 = ORIENTED_EDGE ( 'NONE', *, *, #791, .F. ) ;
#605 = DIRECTION ( 'NONE',  ( -0.000000000000000000, 1.000000000000000000, -0.000000000000000000 ) ) ;
#606 = VERTEX_POINT ( 'NONE', #562 ) ;
#607 = LINE ( 'NONE', #601, #947 ) ;
#608 = ORIENTED_EDGE ( 'NONE', *, *, #708, .F. ) ;
#609 = FACE_OUTER_BOUND ( 'NONE', #380, .T. ) ;
#610 = VECTOR ( 'NONE', #1050, 1000.000000000000000 ) ;
#611 = VECTOR ( 'NONE', #176, 1000.000000000000000 ) ;
#612 = VERTEX_POINT ( 'NONE', #62 ) ;
#613 = ADVANCED_FACE ( 'NONE', ( #752 ), #367, .T. ) ;
#614 = CARTESIAN_POINT ( 'NONE',  ( -0.7600000000000000089, 1.000000000000000000, 0.4000000000000000777 ) ) ;
#615 = LINE ( 'NONE', #32, #1019 ) ;
#616 = DIRECTION ( 'NONE',  ( -0.000000000000000000, -0.000000000000000000, 1.000000000000000000 ) ) ;
#617 = EDGE_LOOP ( 'NONE', ( #533, #469, #1064, #1110 ) ) ;
#618 = DIRECTION ( 'NONE',  ( 0.000000000000000000, -1.000000000000000000, 0.000000000000000000 ) ) ;
#619 = SPHERICAL_SURFACE ( 'NONE', #564, 0.04000000000000000083 ) ;
#620 = AXIS2_PLACEMENT_3D ( 'NONE', #1269, #900, #319 ) ;
#621 = CARTESIAN_POINT ( 'NONE',  ( -0.7600000000000000089, 0.9600000000000000755, 0.3600000000000000977 ) ) ;
#622 = SPHERICAL_SURFACE ( 'NONE', #821, 0.04000000000000000083 ) ;
#623 = EDGE_CURVE ( 'NONE', #152, #886, #634, .T. ) ;
#624 = DIRECTION ( 'NONE',  ( -2.710505431213761578E-16, -0.000000000000000000, -1.000000000000000000 ) ) ;
#625 = EDGE_CURVE ( 'NONE', #769, #353, #1145, .T. ) ;
#626 = CYLINDRICAL_SURFACE ( 'NONE', #134, 0.02666666666666664756 ) ;
#627 = EDGE_CURVE ( 'NONE', #606, #424, #1057, .T. ) ;
#628 = DIRECTION ( 'NONE',  ( 1.000000000000000000, 0.000000000000000000, 0.000000000000000000 ) ) ;
#629 = FACE_OUTER_BOUND ( 'NONE', #1238, .T. ) ;
#630 = ORIENTED_EDGE ( 'NONE', *, *, #1119, .T. ) ;
#631 = AXIS2_PLACEMENT_3D ( 'NONE', #216, #310, #699 ) ;
#632 = CIRCLE ( 'NONE', #67, 0.03999999999999999389 ) ;
#633 = DIRECTION ( 'NONE',  ( -1.000000000000000000, 0.000000000000000000, 0.000000000000000000 ) ) ;
#634 = CIRCLE ( 'NONE', #252, 0.03999999999999999389 ) ;
#635 = DIRECTION ( 'NONE',  ( 0.000000000000000000, 0.000000000000000000, 1.000000000000000000 ) ) ;
#636 = SURFACE_STYLE_USAGE ( .BOTH. , #910 ) ;
#637 = CARTESIAN_POINT ( 'NONE',  ( -0.5000000000000002220, 0.9600000000000000755, -0.3599999999999998201 ) ) ;
#638 = DIRECTION ( 'NONE',  ( 1.000000000000000000, 0.000000000000000000, 0.000000000000000000 ) ) ;
#639 = CARTESIAN_POINT ( 'NONE',  ( -0.5000000000000001110, 0.9600000000000000755, -0.3599999999999998201 ) ) ;
#640 = CARTESIAN_POINT ( 'NONE',  ( 0.7600000000000000089, 0.03999999999999999389, 0.3600000000000000977 ) ) ;
#641 = DIRECTION ( 'NONE',  ( -1.000000000000000000, 0.000000000000000000, 0.000000000000000000 ) ) ;
#642 = EDGE_LOOP ( 'NONE', ( #470, #1093, #578, #219 ) ) ;
#643 = DIRECTION ( 'NONE',  ( 0.000000000000000000, 0.000000000000000000, 1.000000000000000000 ) ) ;
#644 = PLANE ( 'NONE',  #189 ) ;
#645 = DIRECTION ( 'NONE',  ( 0.000000000000000000, -1.000000000000000000, 0.000000000000000000 ) ) ;
#646 = ADVANCED_FACE ( 'NONE', ( #1235 ), #855, .F. ) ;
#647 = PLANE ( 'NONE',  #996 ) ;
#648 = VECTOR ( 'NONE', #317, 1000.000000000000000 ) ;
#649 = DIRECTION ( 'NONE',  ( 0.000000000000000000, 1.000000000000000000, -0.000000000000000000 ) ) ;
#650 = DIRECTION ( 'NONE',  ( 0.000000000000000000, 1.000000000000000000, 0.000000000000000000 ) ) ;
#651 = ORIENTED_EDGE ( 'NONE', *, *, #159, .F. ) ;
#652 = VECTOR ( 'NONE', #427, 1000.000000000000000 ) ;
#653 = DIRECTION ( 'NONE',  ( 0.000000000000000000, 1.000000000000000000, 0.000000000000000000 ) ) ;
#654 = VERTEX_POINT ( 'NONE', #56 ) ;
#655 = CARTESIAN_POINT ( 'NONE',  ( 0.4999999999881765689, 0.01333333333333333245, 0.3599999998211064756 ) ) ;
#656 = EDGE_LOOP ( 'NONE', ( #1066, #1273, #848, #1230 ) ) ;
#657 = CIRCLE ( 'NONE', #102, 0.03999999999999999389 ) ;
#658 = ORIENTED_EDGE ( 'NONE', *, *, #978, .F. ) ;
#659 = CARTESIAN_POINT ( 'NONE',  ( 0.5000000000000002220, 0.9600000000000000755, -0.3599999999999998201 ) ) ;
#660 = EDGE_CURVE ( 'NONE', #654, #505, #349, .T. ) ;
#661 = DIRECTION ( 'NONE',  ( -0.000000000000000000, 1.000000000000000000, -0.000000000000000000 ) ) ;
#662 = CARTESIAN_POINT ( 'NONE',  ( -0.5000000000000000000, 1.000000000000000000, 0.3600000000000000977 ) ) ;
#663 = ADVANCED_FACE ( 'NONE', ( #78 ), #837, .T. ) ;
#664 = ORIENTED_EDGE ( 'NONE', *, *, #1208, .T. ) ;
#665 = CARTESIAN_POINT ( 'NONE',  ( -0.7600000000000001199, 0.9600000000000000755, 1.029992063861229705E-16 ) ) ;
#666 = AXIS2_PLACEMENT_3D ( 'NONE', #1212, #1197, #37 ) ;
#667 = LINE ( 'NONE', #1047, #476 ) ;
#668 = ORIENTED_EDGE ( 'NONE', *, *, #841, .T. ) ;
#669 = VERTEX_POINT ( 'NONE', #935 ) ;
#670 = DIRECTION ( 'NONE',  ( 0.000000000000000000, 0.000000000000000000, 1.000000000000000000 ) ) ;
#671 = ORIENTED_EDGE ( 'NONE', *, *, #537, .T. ) ;
#672 = PRESENTATION_STYLE_ASSIGNMENT (( #566 ) ) ;
#673 = ORIENTED_EDGE ( 'NONE', *, *, #1059, .T. ) ;
#674 = VERTEX_POINT ( 'NONE', #1150 ) ;
#675 = DIRECTION ( 'NONE',  ( -1.000000000000000000, 0.000000000000000000, 0.000000000000000000 ) ) ;
#676 = DIRECTION ( 'NONE',  ( 1.000000000000000000, 0.000000000000000000, 2.710505431213761578E-16 ) ) ;
#677 = LINE ( 'NONE', #210, #522 ) ;
#678 = DIRECTION ( 'NONE',  ( 0.000000000000000000, -1.000000000000000000, -0.000000000000000000 ) ) ;
#679 = EDGE_CURVE ( 'NONE', #597, #86, #467, .T. ) ;
#680 = DIRECTION ( 'NONE',  ( 1.000000000000000000, -0.000000000000000000, -0.000000000000000000 ) ) ;
#681 = AXIS2_PLACEMENT_3D ( 'NONE', #779, #616, #595 ) ;
#682 = ORIENTED_EDGE ( 'NONE', *, *, #66, .T. ) ;
#683 = LINE ( 'NONE', #404, #1056 ) ;
#684 = EDGE_LOOP ( 'NONE', ( #500, #871, #682, #961 ) ) ;
#685 = CYLINDRICAL_SURFACE ( 'NONE', #1209, 0.03999999999999999389 ) ;
#686 = COLOUR_RGB ( '',0.7921568627450980005, 0.8196078431372548767, 0.9333333333333333481 ) ;
#687 = ORIENTED_EDGE ( 'NONE', *, *, #463, .T. ) ;
#688 = LINE ( 'NONE', #198, #1139 ) ;
#689 = VECTOR ( 'NONE', #316, 1000.000000000000000 ) ;
#690 = ORIENTED_EDGE ( 'NONE', *, *, #1149, .F. ) ;
#691 = DIRECTION ( 'NONE',  ( -1.000000000000000000, -0.000000000000000000, 8.673617379884036705E-17 ) ) ;
#692 = CARTESIAN_POINT ( 'NONE',  ( -0.7600000000000001199, 0.9600000000000000755, -0.3999999999999998002 ) ) ;
#693 = CARTESIAN_POINT ( 'NONE',  ( 500000.0000000000582, 0.9600000000000000755, 0.3866666666232985716 ) ) ;
#694 = EDGE_LOOP ( 'NONE', ( #1060, #1162, #774, #1264, #853, #439, #974, #357 ) ) ;
#695 = CIRCLE ( 'NONE', #99, 0.02666666666666664756 ) ;
#696 = ADVANCED_FACE ( 'NONE', ( #570 ), #644, .F. ) ;
#697 = LINE ( 'NONE', #1091, #763 ) ;
#698 = ORIENTED_EDGE ( 'NONE', *, *, #1165, .F. ) ;
#699 = DIRECTION ( 'NONE',  ( 0.000000000000000000, 0.000000000000000000, -1.000000000000000000 ) ) ;
#700 = EDGE_CURVE ( 'NONE', #123, #100, #174, .T. ) ;
#701 = VERTEX_POINT ( 'NONE', #1240 ) ;
#702 = CARTESIAN_POINT ( 'NONE',  ( -0.5000000000000002220, 0.03999999999999999389, -0.3599999999999998201 ) ) ;
#703 = VERTEX_POINT ( 'NONE', #248 ) ;
#704 = CARTESIAN_POINT ( 'NONE',  ( -0.5000000000000001110, 0.9600000000000000755, 0.3600000000000000977 ) ) ;
#705 = AXIS2_PLACEMENT_3D ( 'NONE', #985, #1085, #1070 ) ;
#706 = DIRECTION ( 'NONE',  ( -1.000000000000000000, -0.000000000000000000, -0.000000000000000000 ) ) ;
#707 = AXIS2_PLACEMENT_3D ( 'NONE', #893, #38, #628 ) ;
#708 = EDGE_CURVE ( 'NONE', #654, #296, #830, .T. ) ;
#709 = LINE ( 'NONE', #1102, #348 ) ;
#710 = CARTESIAN_POINT ( 'NONE',  ( -0.7600000000000000089, 0.9600000000000000755, 0.3600000000000000977 ) ) ;
#711 = CIRCLE ( 'NONE', #271, 0.03999999999999999389 ) ;
#712 = ORIENTED_EDGE ( 'NONE', *, *, #480, .T. ) ;
#713 = DIRECTION ( 'NONE',  ( -1.000000000000000000, 0.000000000000000000, 2.710505431213761578E-16 ) ) ;
#714 = CIRCLE ( 'NONE', #150, 0.03999999999999999389 ) ;
#715 = CARTESIAN_POINT ( 'NONE',  ( 0.7600000000000000089, 0.9600000000000000755, 0.3600000000000000977 ) ) ;
#716 = CARTESIAN_POINT ( 'NONE',  ( 0.7600000000000000089, 1.000000000000000000, 0.4000000000000000777 ) ) ;
#717 = EDGE_CURVE ( 'NONE', #674, #669, #1254, .T. ) ;
#718 = ORIENTED_EDGE ( 'NONE', *, *, #471, .T. ) ;
#719 = EDGE_CURVE ( 'NONE', #236, #424, #259, .T. ) ;
#720 = CARTESIAN_POINT ( 'NONE',  ( 500000.0000000000582, 0.01333333333333333245, -0.3600000000433677405 ) ) ;
#721 = FACE_OUTER_BOUND ( 'NONE', #799, .T. ) ;
#722 = CARTESIAN_POINT ( 'NONE',  ( 0.4999999999881765689, 0.04000000000000021594, 0.3866666666666666030 ) ) ;
#723 = DIRECTION ( 'NONE',  ( -1.000000000000000000, -0.000000000000000000, 8.673617379884036705E-17 ) ) ;
#724 = FACE_OUTER_BOUND ( 'NONE', #684, .T. ) ;
#725 = CARTESIAN_POINT ( 'NONE',  ( -0.5000000000000002220, 0.03999999999999999389, -0.3999999999999998002 ) ) ;
#726 =( NAMED_UNIT ( * ) PLANE_ANGLE_UNIT ( ) SI_UNIT ( $, .RADIAN. ) );
#727 = ORIENTED_EDGE ( 'NONE', *, *, #625, .T. ) ;
#728 = ORIENTED_EDGE ( 'NONE', *, *, #700, .F. ) ;
#729 = PLANE ( 'NONE',  #1202 ) ;
#730 = VECTOR ( 'NONE', #246, 1000.000000000000000 ) ;
#731 = DIRECTION ( 'NONE',  ( 0.000000000000000000, 1.000000000000000000, 0.000000000000000000 ) ) ;
#732 = CARTESIAN_POINT ( 'NONE',  ( 500000.0000000000582, 0.9866666666666666918, 0.3599999999566314557 ) ) ;
#733 = CARTESIAN_POINT ( 'NONE',  ( -0.8000000000000000444, 0.03999999999999999389, 0.3600000000000000977 ) ) ;
#734 = ADVANCED_FACE ( 'NONE', ( #950 ), #343, .T. ) ;
#735 = DIRECTION ( 'NONE',  ( 0.000000000000000000, 0.000000000000000000, 1.000000000000000000 ) ) ;
#736 = CARTESIAN_POINT ( 'NONE',  ( 0.000000000000000000, 1.000000000000000000, 0.000000000000000000 ) ) ;
#737 = ORIENTED_EDGE ( 'NONE', *, *, #1247, .F. ) ;
#738 = DIRECTION ( 'NONE',  ( 0.000000000000000000, 0.000000000000000000, -1.000000000000000000 ) ) ;
#739 = FILL_AREA_STYLE_COLOUR ( '', #686 ) ;
#740 = VERTEX_POINT ( 'NONE', #452 ) ;
#741 = AXIS2_PLACEMENT_3D ( 'NONE', #736, #653, #1045 ) ;
#742 = DIRECTION ( 'NONE',  ( -1.355252715606880789E-16, 0.000000000000000000, 1.000000000000000000 ) ) ;
#743 =( GEOMETRIC_REPRESENTATION_CONTEXT ( 3 ) GLOBAL_UNCERTAINTY_ASSIGNED_CONTEXT ( ( #844 ) ) GLOBAL_UNIT_ASSIGNED_CONTEXT ( ( #147, #726, #1017 ) ) REPRESENTATION_CONTEXT ( 'NONE', 'WORKASPACE' ) );
#744 = CARTESIAN_POINT ( 'NONE',  ( -0.7600000000000000089, 1.000000000000000000, 0.4000000000000000777 ) ) ;
#745 = EDGE_CURVE ( 'NONE', #969, #119, #697, .T. ) ;
#746 = ORIENTED_EDGE ( 'NONE', *, *, #1119, .F. ) ;
#747 = VECTOR ( 'NONE', #618, 1000.000000000000000 ) ;
#748 = EDGE_CURVE ( 'NONE', #60, #353, #1224, .T. ) ;
#749 = VERTEX_POINT ( 'NONE', #793 ) ;
#750 = FACE_OUTER_BOUND ( 'NONE', #1068, .T. ) ;
#751 = ADVANCED_FACE ( 'NONE', ( #11 ), #992, .F. ) ;
#752 = FACE_OUTER_BOUND ( 'NONE', #642, .T. ) ;
#753 = PRESENTATION_LAYER_ASSIGNMENT (  '', '', ( #35 ) ) ;
#754 = VERTEX_POINT ( 'NONE', #599 ) ;
#755 = ORIENTED_EDGE ( 'NONE', *, *, #241, .F. ) ;
#756 = DIRECTION ( 'NONE',  ( 0.000000000000000000, 0.000000000000000000, -1.000000000000000000 ) ) ;
#757 = DIRECTION ( 'NONE',  ( 1.355252715606880789E-16, -0.000000000000000000, -1.000000000000000000 ) ) ;
#758 = ORIENTED_EDGE ( 'NONE', *, *, #29, .F. ) ;
#759 = ORIENTED_EDGE ( 'NONE', *, *, #909, .T. ) ;
#760 = DIRECTION ( 'NONE',  ( 0.000000000000000000, -1.000000000000000000, 0.000000000000000000 ) ) ;
#761 = CIRCLE ( 'NONE', #315, 0.03999999999999999389 ) ;
#762 =( GEOMETRIC_REPRESENTATION_CONTEXT ( 3 ) GLOBAL_UNCERTAINTY_ASSIGNED_CONTEXT ( ( #253 ) ) GLOBAL_UNIT_ASSIGNED_CONTEXT ( ( #772, #1168, #256 ) ) REPRESENTATION_CONTEXT ( 'NONE', 'WORKASPACE' ) );
#763 = VECTOR ( 'NONE', #206, 1000.000000000000000 ) ;
#764 = VERTEX_POINT ( 'NONE', #863 ) ;
#765 = FACE_OUTER_BOUND ( 'NONE', #656, .T. ) ;
#766 = ORIENTED_EDGE ( 'NONE', *, *, #113, .F. ) ;
#767 = CARTESIAN_POINT ( 'NONE',  ( -0.5000000000000001110, 0.9599999999999998535, -0.3866666666666664365 ) ) ;
#768 = STYLED_ITEM ( 'NONE', ( #228 ), #243 ) ;
#769 = VERTEX_POINT ( 'NONE', #178 ) ;
#770 = CARTESIAN_POINT ( 'NONE',  ( -0.8000000000000001554, 0.03999999999999999389, -0.3599999999999998201 ) ) ;
#771 = CARTESIAN_POINT ( 'NONE',  ( 0.5000000000000002220, 1.000000000000000000, -0.3999999999999998002 ) ) ;
#772 =( LENGTH_UNIT ( ) NAMED_UNIT ( * ) SI_UNIT ( .MILLI., .METRE. ) );
#773 = ADVANCED_FACE ( 'NONE', ( #114 ), #1259, .T. ) ;
#774 = ORIENTED_EDGE ( 'NONE', *, *, #109, .T. ) ;
#775 = VECTOR ( 'NONE', #195, 1000.000000000000000 ) ;
#776 = DIRECTION ( 'NONE',  ( 0.000000000000000000, -1.000000000000000000, 0.000000000000000000 ) ) ;
#777 = ORIENTED_EDGE ( 'NONE', *, *, #1149, .T. ) ;
#778 = CYLINDRICAL_SURFACE ( 'NONE', #1100, 0.03999999999999999389 ) ;
#779 = CARTESIAN_POINT ( 'NONE',  ( 0.7600000000000001199, 0.9600000000000000755, -0.3599999999999998201 ) ) ;
#780 = DIRECTION ( 'NONE',  ( 0.000000000000000000, 0.000000000000000000, 1.000000000000000000 ) ) ;
#781 = EDGE_CURVE ( 'NONE', #674, #359, #784, .T. ) ;
#782 = ORIENTED_EDGE ( 'NONE', *, *, #1253, .T. ) ;
#783 = CIRCLE ( 'NONE', #392, 0.02666666666666669960 ) ;
#784 = LINE ( 'NONE', #97, #813 ) ;
#785 = ORIENTED_EDGE ( 'NONE', *, *, #1025, .T. ) ;
#786 = CYLINDRICAL_SURFACE ( 'NONE', #1155, 0.03999999999999999389 ) ;
#787 = AXIS2_PLACEMENT_3D ( 'NONE', #1131, #461, #941 ) ;
#788 = CARTESIAN_POINT ( 'NONE',  ( 0.4999999999881765689, 0.9866666666666666918, -0.3599999999999999312 ) ) ;
#789 = PLANE ( 'NONE',  #1166 ) ;
#790 = AXIS2_PLACEMENT_3D ( 'NONE', #17, #1112, #239 ) ;
#791 = EDGE_CURVE ( 'NONE', #1252, #1159, #375, .T. ) ;
#792 = ORIENTED_EDGE ( 'NONE', *, *, #623, .T. ) ;
#793 = CARTESIAN_POINT ( 'NONE',  ( -0.5000000000000000000, 0.9600000000000000755, 0.4000000000000000777 ) ) ;
#794 = ADVANCED_FACE ( 'NONE', ( #279 ), #481, .T. ) ;
#795 = ORIENTED_EDGE ( 'NONE', *, *, #1063, .T. ) ;
#796 = CARTESIAN_POINT ( 'NONE',  ( 0.7600000000000001199, 0.9600000000000000755, -0.3999999999999998002 ) ) ;
#797 = VERTEX_POINT ( 'NONE', #767 ) ;
#798 = CARTESIAN_POINT ( 'NONE',  ( -0.7600000000000000089, 0.000000000000000000, 0.3600000000000000977 ) ) ;
#799 = EDGE_LOOP ( 'NONE', ( #1049, #449, #454, #986, #766, #107, #658, #177 ) ) ;
#800 = CARTESIAN_POINT ( 'NONE',  ( 0.5000000000000002220, 1.000000000000000000, -0.3999999999999998002 ) ) ;
#801 = DIRECTION ( 'NONE',  ( -1.000000000000000000, -0.000000000000000000, -0.000000000000000000 ) ) ;
#802 = DIRECTION ( 'NONE',  ( 1.000000000000000000, 0.000000000000000000, 2.710505431213761578E-16 ) ) ;
#803 = CARTESIAN_POINT ( 'NONE',  ( -0.7600000000000001199, 0.03999999999999999389, -0.3599999999999998201 ) ) ;
#804 = ORIENTED_EDGE ( 'NONE', *, *, #858, .T. ) ;
#805 = LINE ( 'NONE', #121, #689 ) ;
#806 = EDGE_CURVE ( 'NONE', #86, #1258, #1, .T. ) ;
#807 = CYLINDRICAL_SURFACE ( 'NONE', #666, 0.03999999999999999389 ) ;
#808 = PRESENTATION_STYLE_ASSIGNMENT (( #636 ) ) ;
#809 = CARTESIAN_POINT ( 'NONE',  ( -0.5000000000000001110, 0.03999999999999999389, -0.3866666666666664365 ) ) ;
#810 = AXIS2_PLACEMENT_3D ( 'NONE', #832, #528, #428 ) ;
#811 = EDGE_LOOP ( 'NONE', ( #154, #938, #491, #1189 ) ) ;
#812 = FACE_OUTER_BOUND ( 'NONE', #942, .T. ) ;
#813 = VECTOR ( 'NONE', #888, 1000.000000000000000 ) ;
#814 = DIRECTION ( 'NONE',  ( -1.000000000000000000, -0.000000000000000000, 8.673617379884036705E-17 ) ) ;
#815 = SPHERICAL_SURFACE ( 'NONE', #946, 0.04000000000000000083 ) ;
#816 = CYLINDRICAL_SURFACE ( 'NONE', #234, 0.03999999999999999389 ) ;
#817 = EDGE_CURVE ( 'NONE', #1114, #612, #30, .T. ) ;
#818 = CYLINDRICAL_SURFACE ( 'NONE', #1044, 0.03999999999999999389 ) ;
#819 = AXIS2_PLACEMENT_3D ( 'NONE', #800, #1190, #1098 ) ;
#820 = DIRECTION ( 'NONE',  ( 1.000000000000000000, 0.000000000000000000, 0.000000000000000000 ) ) ;
#821 = AXIS2_PLACEMENT_3D ( 'NONE', #710, #501, #394 ) ;
#822 = DIRECTION ( 'NONE',  ( -1.000000000000000000, 0.000000000000000000, 0.000000000000000000 ) ) ;
#823 = CARTESIAN_POINT ( 'NONE',  ( -0.5000000000000002220, 0.000000000000000000, -0.3599999999999998201 ) ) ;
#824 = ADVANCED_FACE ( 'NONE', ( #403 ), #1158, .F. ) ;
#825 = DIRECTION ( 'NONE',  ( 2.710505431213761578E-16, 0.000000000000000000, 1.000000000000000000 ) ) ;
#826 = CARTESIAN_POINT ( 'NONE',  ( -0.7600000000000001199, 0.9600000000000000755, -0.3599999999999998201 ) ) ;
#827 = AXIS2_PLACEMENT_3D ( 'NONE', #771, #802, #904 ) ;
#828 = CARTESIAN_POINT ( 'NONE',  ( -0.7600000000000000089, 0.04000000000000000083, 0.3600000000000000977 ) ) ;
#829 = EDGE_CURVE ( 'NONE', #353, #701, #581, .T. ) ;
#830 = CIRCLE ( 'NONE', #26, 0.03999999999999999389 ) ;
#831 = CARTESIAN_POINT ( 'NONE',  ( 500000.0000000000582, 0.01333333333333333245, 0.3599999999566316777 ) ) ;
#832 = CARTESIAN_POINT ( 'NONE',  ( -0.5000000000000001110, 0.9600000000000000755, -0.3599999999999998201 ) ) ;
#833 = EDGE_CURVE ( 'NONE', #296, #1076, #714, .T. ) ;
#834 = LINE ( 'NONE', #1227, #561 ) ;
#835 = FILL_AREA_STYLE_COLOUR ( '', #1144 ) ;
#836 = ADVANCED_FACE ( 'NONE', ( #966 ), #90, .T. ) ;
#837 = CYLINDRICAL_SURFACE ( 'NONE', #1135, 0.03999999999999999389 ) ;
#838 = ORIENTED_EDGE ( 'NONE', *, *, #202, .F. ) ;
#839 = DIRECTION ( 'NONE',  ( -1.000000000000000000, 0.000000000000000000, 0.000000000000000000 ) ) ;
#840 = DIRECTION ( 'NONE',  ( 0.000000000000000000, 0.000000000000000000, 1.000000000000000000 ) ) ;
#841 = EDGE_CURVE ( 'NONE', #886, #654, #880, .T. ) ;
#842 = EDGE_LOOP ( 'NONE', ( #994, #604, #857, #291 ) ) ;
#843 = DIRECTION ( 'NONE',  ( 0.000000000000000000, 0.000000000000000000, 1.000000000000000000 ) ) ;
#844 = UNCERTAINTY_MEASURE_WITH_UNIT (LENGTH_MEASURE( 1.000000000000000082E-05 ), #147, 'distance_accuracy_value', 'NONE');
#845 = AXIS2_PLACEMENT_3D ( 'NONE', #1167, #298, #117 ) ;
#846 = ORIENTED_EDGE ( 'NONE', *, *, #572, .F. ) ;
#847 = EDGE_CURVE ( 'NONE', #103, #81, #688, .T. ) ;
#848 = ORIENTED_EDGE ( 'NONE', *, *, #579, .F. ) ;
#849 = CARTESIAN_POINT ( 'NONE',  ( 500000.0000000000582, 0.03999999999999999389, -0.3600000000433679626 ) ) ;
#850 = AXIS2_PLACEMENT_3D ( 'NONE', #826, #535, #635 ) ;
#851 = DIRECTION ( 'NONE',  ( -1.000000000000000000, -0.000000000000000000, -0.000000000000000000 ) ) ;
#852 = CARTESIAN_POINT ( 'NONE',  ( 0.5000000000000000000, 1.000000000000000000, 0.4000000000000000777 ) ) ;
#853 = ORIENTED_EDGE ( 'NONE', *, *, #700, .T. ) ;
#854 = EDGE_LOOP ( 'NONE', ( #207, #400, #368, #664 ) ) ;
#855 = PLANE ( 'NONE',  #416 ) ;
#856 = LINE ( 'NONE', #852, #24 ) ;
#857 = ORIENTED_EDGE ( 'NONE', *, *, #166, .T. ) ;
#858 = EDGE_CURVE ( 'NONE', #612, #459, #230, .T. ) ;
#859 = ORIENTED_EDGE ( 'NONE', *, *, #748, .F. ) ;
#860 = CARTESIAN_POINT ( 'NONE',  ( 0.8000000000000001554, 1.000000000000000000, -0.3999999999999998002 ) ) ;
#861 = EDGE_LOOP ( 'NONE', ( #172, #755, #1141, #445 ) ) ;
#862 = ORIENTED_EDGE ( 'NONE', *, *, #161, .F. ) ;
#863 = CARTESIAN_POINT ( 'NONE',  ( -0.5000000000000001110, 0.9866666666666666918, 0.3599999999999995981 ) ) ;
#864 = CIRCLE ( 'NONE', #1079, 0.02666666666666664756 ) ;
#865 = ORIENTED_EDGE ( 'NONE', *, *, #410, .F. ) ;
#866 = DIRECTION ( 'NONE',  ( -1.000000000000000000, -0.000000000000000000, -0.000000000000000000 ) ) ;
#867 = ADVANCED_FACE ( 'NONE', ( #913 ), #415, .T. ) ;
#868 = ORIENTED_EDGE ( 'NONE', *, *, #386, .F. ) ;
#869 = DIRECTION ( 'NONE',  ( -1.000000000000000000, -0.000000000000000000, 8.673617379884036705E-17 ) ) ;
#870 = VECTOR ( 'NONE', #1176, 1000.000000000000000 ) ;
#871 = ORIENTED_EDGE ( 'NONE', *, *, #322, .T. ) ;
#872 = CARTESIAN_POINT ( 'NONE',  ( -0.7600000000000001199, 1.000000000000000000, -0.3599999999999998201 ) ) ;
#873 = ADVANCED_FACE ( 'NONE', ( #812 ), #729, .F. ) ;
#874 = EDGE_LOOP ( 'NONE', ( #479, #465, #1084, #360 ) ) ;
#875 = DIRECTION ( 'NONE',  ( 0.000000000000000000, 0.000000000000000000, 1.000000000000000000 ) ) ;
#876 = CARTESIAN_POINT ( 'NONE',  ( 500000.0000000000582, 0.9600000000000000755, 0.3599999999566319553 ) ) ;
#877 = DIRECTION ( 'NONE',  ( 0.000000000000000000, 0.000000000000000000, 1.000000000000000000 ) ) ;
#878 = ORIENTED_EDGE ( 'NONE', *, *, #254, .F. ) ;
#879 = CIRCLE ( 'NONE', #442, 0.03999999999999999389 ) ;
#880 = LINE ( 'NONE', #1272, #870 ) ;
#881 = FACE_OUTER_BOUND ( 'NONE', #1181, .T. ) ;
#882 = EDGE_CURVE ( 'NONE', #296, #152, #534, .T. ) ;
#883 = DIRECTION ( 'NONE',  ( 0.000000000000000000, 0.000000000000000000, -1.000000000000000000 ) ) ;
#884 = CARTESIAN_POINT ( 'NONE',  ( 0.5000000000000000000, 1.000000000000000000, 0.3600000000000000977 ) ) ;
#885 = EDGE_CURVE ( 'NONE', #749, #296, #309, .T. ) ;
#886 = VERTEX_POINT ( 'NONE', #1106 ) ;
#887 = EDGE_CURVE ( 'NONE', #60, #754, #323, .T. ) ;
#888 = DIRECTION ( 'NONE',  ( -0.000000000000000000, 1.000000000000000000, 0.000000000000000000 ) ) ;
#889 = EDGE_LOOP ( 'NONE', ( #277, #59, #212, #567 ) ) ;
#890 = VECTOR ( 'NONE', #475, 1000.000000000000000 ) ;
#891 = DIRECTION ( 'NONE',  ( 0.000000000000000000, 0.000000000000000000, 1.000000000000000000 ) ) ;
#892 = VECTOR ( 'NONE', #104, 1000.000000000000000 ) ;
#893 = CARTESIAN_POINT ( 'NONE',  ( 0.7600000000000001199, 0.04000000000000000083, -0.3599999999999998201 ) ) ;
#894 = CARTESIAN_POINT ( 'NONE',  ( 0.7600000000000001199, 0.9600000000000000755, -0.3599999999999998201 ) ) ;
#895 = ORIENTED_EDGE ( 'NONE', *, *, #113, .T. ) ;
#896 = DIRECTION ( 'NONE',  ( -1.000000000000000000, 0.000000000000000000, 0.000000000000000000 ) ) ;
#897 = CARTESIAN_POINT ( 'NONE',  ( 500000.0000000000582, 0.9600000000000000755, 0.3866666666232986271 ) ) ;
#898 = PRESENTATION_LAYER_ASSIGNMENT (  '', '', ( #768 ) ) ;
#899 = DIRECTION ( 'NONE',  ( -1.000000000000000000, 0.000000000000000000, 0.000000000000000000 ) ) ;
#900 = DIRECTION ( 'NONE',  ( 0.000000000000000000, 1.000000000000000000, 0.000000000000000000 ) ) ;
#901 = ORIENTED_EDGE ( 'NONE', *, *, #209, .F. ) ;
#902 = DIRECTION ( 'NONE',  ( 1.000000000000000000, 0.000000000000000000, -8.673617379884036705E-17 ) ) ;
#903 = PLANE ( 'NONE',  #810 ) ;
#904 = DIRECTION ( 'NONE',  ( -2.710505431213761578E-16, 0.000000000000000000, 1.000000000000000000 ) ) ;
#905 = DIRECTION ( 'NONE',  ( -8.673617379884036705E-17, 0.000000000000000000, -1.000000000000000000 ) ) ;
#906 = ORIENTED_EDGE ( 'NONE', *, *, #447, .F. ) ;
#907 = CARTESIAN_POINT ( 'NONE',  ( 0.4999999999881765689, 0.9600000000000000755, 0.3866666666666666585 ) ) ;
#908 = CARTESIAN_POINT ( 'NONE',  ( 500000.0000000000582, 0.03999999999999999389, 0.3599999999566319553 ) ) ;
#909 = EDGE_CURVE ( 'NONE', #123, #464, #916, .T. ) ;
#910 = SURFACE_SIDE_STYLE ('',( #235 ) ) ;
#911 = LINE ( 'NONE', #521, #730 ) ;
#912 = VERTEX_POINT ( 'NONE', #220 ) ;
#913 = FACE_OUTER_BOUND ( 'NONE', #874, .T. ) ;
#914 = FACE_OUTER_BOUND ( 'NONE', #366, .T. ) ;
#915 = DIRECTION ( 'NONE',  ( 1.000000000000000000, 0.000000000000000000, 2.710505431213761578E-16 ) ) ;
#916 = LINE ( 'NONE', #31, #355 ) ;
#917 = MECHANICAL_DESIGN_GEOMETRIC_PRESENTATION_REPRESENTATION (  '', ( #35 ), #762 ) ;
#918 = FACE_OUTER_BOUND ( 'NONE', #854, .T. ) ;
#919 =( LENGTH_UNIT ( ) NAMED_UNIT ( * ) SI_UNIT ( .MILLI., .METRE. ) );
#920 =( LENGTH_UNIT ( ) NAMED_UNIT ( * ) SI_UNIT ( .MILLI., .METRE. ) );
#921 = EDGE_CURVE ( 'NONE', #119, #236, #1007, .T. ) ;
#922 = EDGE_CURVE ( 'NONE', #505, #740, #805, .T. ) ;
#923 = DIRECTION ( 'NONE',  ( 0.000000000000000000, 0.000000000000000000, -1.000000000000000000 ) ) ;
#924 = DIRECTION ( 'NONE',  ( 0.000000000000000000, -1.000000000000000000, 0.000000000000000000 ) ) ;
#925 = FILL_AREA_STYLE ('',( #739 ) ) ;
#926 = PRESENTATION_LAYER_ASSIGNMENT (  '', '', ( #187 ) ) ;
#927 = EDGE_CURVE ( 'NONE', #963, #255, #1217, .T. ) ;
#928 = EDGE_CURVE ( 'NONE', #359, #68, #695, .T. ) ;
#929 = CARTESIAN_POINT ( 'NONE',  ( -0.5000000000000002220, 1.000000000000000000, -0.3999999999999998002 ) ) ;
#930 = CARTESIAN_POINT ( 'NONE',  ( -0.8000000000000001554, 0.9600000000000000755, -0.3999999999999998002 ) ) ;
#931 = CARTESIAN_POINT ( 'NONE',  ( -0.7600000000000000089, 0.03999999999999999389, 0.4000000000000000777 ) ) ;
#932 = DIRECTION ( 'NONE',  ( 1.000000000000000000, -0.000000000000000000, -2.710505431213761578E-16 ) ) ;
#933 = DIRECTION ( 'NONE',  ( -1.000000000000000000, -0.000000000000000000, 8.673617379884036705E-17 ) ) ;
#934 = ADVANCED_FACE ( 'NONE', ( #131 ), #136, .T. ) ;
#935 = CARTESIAN_POINT ( 'NONE',  ( -0.5000000000000001110, 0.03999999999999999389, -0.3866666666666664365 ) ) ;
#936 = DIRECTION ( 'NONE',  ( 1.000000000000000000, 0.000000000000000000, 0.000000000000000000 ) ) ;
#937 = EDGE_CURVE ( 'NONE', #505, #86, #199, .T. ) ;
#938 = ORIENTED_EDGE ( 'NONE', *, *, #1105, .T. ) ;
#939 = ORIENTED_EDGE ( 'NONE', *, *, #829, .F. ) ;
#940 = CARTESIAN_POINT ( 'NONE',  ( -0.7600000000000001199, 0.000000000000000000, -0.3599999999999998201 ) ) ;
#941 = DIRECTION ( 'NONE',  ( 0.000000000000000000, 0.000000000000000000, -1.000000000000000000 ) ) ;
#942 = EDGE_LOOP ( 'NONE', ( #272, #398, #1156, #1185, #954, #1183, #673, #184 ) ) ;
#943 = DIRECTION ( 'NONE',  ( 0.000000000000000000, 0.000000000000000000, 1.000000000000000000 ) ) ;
#944 = PRODUCT_DEFINITION_CONTEXT ( 'detailed design', #1275, 'design' ) ;
#945 = EDGE_LOOP ( 'NONE', ( #311, #990, #1142, #1233 ) ) ;
#946 = AXIS2_PLACEMENT_3D ( 'NONE', #1213, #924, #822 ) ;
#947 = VECTOR ( 'NONE', #987, 1000.000000000000000 ) ;
#948 = VERTEX_POINT ( 'NONE', #907 ) ;
#949 = LINE ( 'NONE', #929, #610 ) ;
#950 = FACE_OUTER_BOUND ( 'NONE', #945, .T. ) ;
#951 = PRODUCT_DEFINITION_SHAPE ( 'NONE', 'NONE',  #1011 ) ;
#952 = DIRECTION ( 'NONE',  ( 1.000000000000000000, -0.000000000000000000, -2.710505431213761578E-16 ) ) ;
#953 = ORIENTED_EDGE ( 'NONE', *, *, #921, .T. ) ;
#954 = ORIENTED_EDGE ( 'NONE', *, *, #847, .F. ) ;
#955 = DIRECTION ( 'NONE',  ( 0.000000000000000000, 1.000000000000000000, 0.000000000000000000 ) ) ;
#956 = CARTESIAN_POINT ( 'NONE',  ( -0.5000000000000001110, 0.01333333333333333245, -0.3599999999999995981 ) ) ;
#957 = EDGE_LOOP ( 'NONE', ( #1279, #112, #477, #242 ) ) ;
#958 = ORIENTED_EDGE ( 'NONE', *, *, #882, .F. ) ;
#959 = ADVANCED_FACE ( 'NONE', ( #524 ), #818, .T. ) ;
#960 = DIRECTION ( 'NONE',  ( 0.000000000000000000, -1.000000000000000000, 0.000000000000000000 ) ) ;
#961 = ORIENTED_EDGE ( 'NONE', *, *, #719, .T. ) ;
#962 = DIRECTION ( 'NONE',  ( -0.000000000000000000, -0.000000000000000000, -1.000000000000000000 ) ) ;
#963 = VERTEX_POINT ( 'NONE', #1211 ) ;
#964 = CLOSED_SHELL ( 'NONE', ( #292, #40, #873, #751, #613, #1192, #1078, #1270, #532, #1152, #551, #331, #663, #197, #388, #527, #773, #836 ) ) ;
#965 = CIRCLE ( 'NONE', #1015, 0.03999999999999999389 ) ;
#966 = FACE_OUTER_BOUND ( 'NONE', #77, .T. ) ;
#967 = AXIS2_PLACEMENT_3D ( 'NONE', #251, #650, #843 ) ;
#968 = VECTOR ( 'NONE', #550, 1000.000000000000000 ) ;
#969 = VERTEX_POINT ( 'NONE', #327 ) ;
#970 = DIRECTION ( 'NONE',  ( 0.000000000000000000, 0.000000000000000000, -1.000000000000000000 ) ) ;
#971 = ORIENTED_EDGE ( 'NONE', *, *, #29, .T. ) ;
#972 = DIRECTION ( 'NONE',  ( 0.000000000000000000, 0.000000000000000000, -1.000000000000000000 ) ) ;
#973 = VECTOR ( 'NONE', #397, 1000.000000000000000 ) ;
#974 = ORIENTED_EDGE ( 'NONE', *, *, #23, .T. ) ;
#975 = ADVANCED_FACE ( 'NONE', ( #41 ), #22, .F. ) ;
#976 = CARTESIAN_POINT ( 'NONE',  ( 0.7600000000000000089, 0.04000000000000000083, 0.3600000000000000977 ) ) ;
#977 = ORIENTED_EDGE ( 'NONE', *, *, #833, .T. ) ;
#978 = EDGE_CURVE ( 'NONE', #764, #1242, #536, .T. ) ;
#979 = CARTESIAN_POINT ( 'NONE',  ( 0.000000000000000000, 0.9600000000000000755, -0.3599999999999998201 ) ) ;
#980 = EDGE_CURVE ( 'NONE', #1193, #764, #61, .T. ) ;
#981 = CARTESIAN_POINT ( 'NONE',  ( -0.5000000000000002220, 1.000000000000000000, -0.3599999999999998201 ) ) ;
#982 = DIRECTION ( 'NONE',  ( -2.710505431213761578E-16, -0.000000000000000000, -1.000000000000000000 ) ) ;
#983 = CIRCLE ( 'NONE', #598, 0.03999999999999999389 ) ;
#984 = ORIENTED_EDGE ( 'NONE', *, *, #858, .F. ) ;
#985 = CARTESIAN_POINT ( 'NONE',  ( -0.7600000000000001199, 0.04000000000000000083, -0.3599999999999998201 ) ) ;
#986 = ORIENTED_EDGE ( 'NONE', *, *, #1025, .F. ) ;
#987 = DIRECTION ( 'NONE',  ( 1.355252715606880789E-16, -0.000000000000000000, -1.000000000000000000 ) ) ;
#988 = DIRECTION ( 'NONE',  ( 1.000000000000000000, 0.000000000000000000, 0.000000000000000000 ) ) ;
#989 = DIRECTION ( 'NONE',  ( -1.000000000000000000, 0.000000000000000000, -1.355252715606880789E-16 ) ) ;
#990 = ORIENTED_EDGE ( 'NONE', *, *, #1210, .F. ) ;
#991 = AXIS2_PLACEMENT_3D ( 'NONE', #538, #27, #542 ) ;
#992 = PLANE ( 'NONE',  #557 ) ;
#993 =( GEOMETRIC_REPRESENTATION_CONTEXT ( 3 ) GLOBAL_UNCERTAINTY_ASSIGNED_CONTEXT ( ( #58 ) ) GLOBAL_UNIT_ASSIGNED_CONTEXT ( ( #919, #1220, #129 ) ) REPRESENTATION_CONTEXT ( 'NONE', 'WORKASPACE' ) );
#994 = ORIENTED_EDGE ( 'NONE', *, *, #225, .F. ) ;
#995 = CARTESIAN_POINT ( 'NONE',  ( 0.8000000000000000444, 0.03999999999999999389, 0.3600000000000000977 ) ) ;
#996 = AXIS2_PLACEMENT_3D ( 'NONE', #831, #144, #554 ) ;
#997 = EDGE_LOOP ( 'NONE', ( #483, #939, #274, #651 ) ) ;
#998 = DIRECTION ( 'NONE',  ( 1.000000000000000000, 0.000000000000000000, 0.000000000000000000 ) ) ;
#999 = ADVANCED_FACE ( 'NONE', ( #354 ), #54, .T. ) ;
#1000 = ORIENTED_EDGE ( 'NONE', *, *, #679, .T. ) ;
#1001 = CARTESIAN_POINT ( 'NONE',  ( 500000.0000000000582, 0.9600000000000000755, -0.3600000000433679626 ) ) ;
#1002 = DIRECTION ( 'NONE',  ( 0.000000000000000000, 0.000000000000000000, -1.000000000000000000 ) ) ;
#1003 = LINE ( 'NONE', #1187, #130 ) ;
#1004 = DIRECTION ( 'NONE',  ( 1.000000000000000000, -0.000000000000000000, -0.000000000000000000 ) ) ;
#1005 = ORIENTED_EDGE ( 'NONE', *, *, #126, .F. ) ;
#1006 = AXIS2_PLACEMENT_3D ( 'NONE', #702, #487, #124 ) ;
#1007 = LINE ( 'NONE', #36, #1083 ) ;
#1008 = EDGE_CURVE ( 'NONE', #459, #396, #983, .T. ) ;
#1009 = CARTESIAN_POINT ( 'NONE',  ( -0.5000000000000000000, 0.03999999999999999389, 0.4000000000000000777 ) ) ;
#1010 = DIRECTION ( 'NONE',  ( 0.000000000000000000, 0.000000000000000000, 1.000000000000000000 ) ) ;
#1011 = PRODUCT_DEFINITION ( 'UNKNOWN', '', #519, #944 ) ;
#1012 = CARTESIAN_POINT ( 'NONE',  ( -0.8000000000000000444, 0.9600000000000000755, 0.4000000000000000777 ) ) ;
#1013 = FACE_OUTER_BOUND ( 'NONE', #402, .T. ) ;
#1014 = MECHANICAL_DESIGN_GEOMETRIC_PRESENTATION_REPRESENTATION (  '', ( #187 ), #993 ) ;
#1015 = AXIS2_PLACEMENT_3D ( 'NONE', #338, #135, #1010 ) ;
#1016 = CARTESIAN_POINT ( 'NONE',  ( -0.5000000000000000000, 1.000000000000000000, 0.3599999999999998201 ) ) ;
#1017 =( NAMED_UNIT ( * ) SI_UNIT ( $, .STERADIAN. ) SOLID_ANGLE_UNIT ( ) );
#1018 = AXIS2_PLACEMENT_3D ( 'NONE', #65, #358, #440 ) ;
#1019 = VECTOR ( 'NONE', #133, 1000.000000000000000 ) ;
#1020 = DIRECTION ( 'NONE',  ( 0.000000000000000000, 0.000000000000000000, -1.000000000000000000 ) ) ;
#1021 = ADVANCED_FACE ( 'NONE', ( #1128 ), #560, .T. ) ;
#1022 = MANIFOLD_SOLID_BREP ( 'Fillet1', #964 ) ;
#1023 = DIRECTION ( 'NONE',  ( -0.000000000000000000, -1.000000000000000000, -0.000000000000000000 ) ) ;
#1024 = SPHERICAL_SURFACE ( 'NONE', #1267, 0.04000000000000000083 ) ;
#1025 = EDGE_CURVE ( 'NONE', #304, #255, #1137, .T. ) ;
#1026 = DIRECTION ( 'NONE',  ( 1.000000000000000000, 0.000000000000000000, 2.710505431213761578E-16 ) ) ;
#1027 = DIRECTION ( 'NONE',  ( 0.000000000000000000, 1.000000000000000000, 0.000000000000000000 ) ) ;
#1028 = PRODUCT_RELATED_PRODUCT_CATEGORY ( 'part', '', ( #362 ) ) ;
#1029 = FILL_AREA_STYLE ('',( #1205 ) ) ;
#1030 = CARTESIAN_POINT ( 'NONE',  ( -0.7600000000000000089, 1.000000000000000000, 0.3600000000000000977 ) ) ;
#1031 = DIRECTION ( 'NONE',  ( 1.000000000000000000, 0.000000000000000000, -8.673617379884036705E-17 ) ) ;
#1032 = DIRECTION ( 'NONE',  ( 0.000000000000000000, 0.000000000000000000, 1.000000000000000000 ) ) ;
#1033 = CARTESIAN_POINT ( 'NONE',  ( 0.000000000000000000, 0.000000000000000000, 0.000000000000000000 ) ) ;
#1034 = PRESENTATION_LAYER_ASSIGNMENT (  '', '', ( #1099 ) ) ;
#1035 = VECTOR ( 'NONE', #153, 1000.000000000000000 ) ;
#1036 = DIRECTION ( 'NONE',  ( -1.000000000000000000, 0.000000000000000000, 0.000000000000000000 ) ) ;
#1037 = DIRECTION ( 'NONE',  ( -1.355252715606880789E-16, -0.000000000000000000, -1.000000000000000000 ) ) ;
#1038 = AXIS2_PLACEMENT_3D ( 'NONE', #872, #776, #490 ) ;
#1039 = LINE ( 'NONE', #655, #453 ) ;
#1040 = UNCERTAINTY_MEASURE_WITH_UNIT (LENGTH_MEASURE( 1.000000000000000082E-05 ), #170, 'distance_accuracy_value', 'NONE');
#1041 = ORIENTED_EDGE ( 'NONE', *, *, #537, .F. ) ;
#1042 = ADVANCED_FACE ( 'NONE', ( #155 ), #647, .F. ) ;
#1043 = CARTESIAN_POINT ( 'NONE',  ( 0.000000000000000000, 0.9600000000000000755, -0.3599999999999998201 ) ) ;
#1044 = AXIS2_PLACEMENT_3D ( 'NONE', #511, #214, #923 ) ;
#1045 = DIRECTION ( 'NONE',  ( 0.000000000000000000, 0.000000000000000000, 1.000000000000000000 ) ) ;
#1046 = EDGE_CURVE ( 'NONE', #1258, #181, #949, .T. ) ;
#1047 = CARTESIAN_POINT ( 'NONE',  ( 0.7600000000000001199, 0.000000000000000000, 1.029992063861229705E-16 ) ) ;
#1048 = VERTEX_POINT ( 'NONE', #940 ) ;
#1049 = ORIENTED_EDGE ( 'NONE', *, *, #480, .F. ) ;
#1050 = DIRECTION ( 'NONE',  ( -0.000000000000000000, -1.000000000000000000, -0.000000000000000000 ) ) ;
#1051 = EDGE_CURVE ( 'NONE', #912, #612, #73, .T. ) ;
#1052 = CARTESIAN_POINT ( 'NONE',  ( 0.000000000000000000, 1.000000000000000000, 0.000000000000000000 ) ) ;
#1053 = CARTESIAN_POINT ( 'NONE',  ( -0.7600000000000001199, 0.9600000000000000755, -0.3599999999999998201 ) ) ;
#1054 = AXIS2_PLACEMENT_3D ( 'NONE', #876, #393, #384 ) ;
#1055 = ORIENTED_EDGE ( 'NONE', *, *, #679, .F. ) ;
#1056 = VECTOR ( 'NONE', #866, 1000.000000000000000 ) ;
#1057 = CIRCLE ( 'NONE', #1223, 0.03999999999999999389 ) ;
#1058 = CARTESIAN_POINT ( 'NONE',  ( 0.8000000000000001554, 0.03999999999999999389, -0.3999999999999998002 ) ) ;
#1059 = EDGE_CURVE ( 'NONE', #749, #589, #451, .T. ) ;
#1060 = ORIENTED_EDGE ( 'NONE', *, *, #928, .T. ) ;
#1061 = LINE ( 'NONE', #744, #372 ) ;
#1062 = ORIENTED_EDGE ( 'NONE', *, *, #579, .T. ) ;
#1063 = EDGE_CURVE ( 'NONE', #912, #119, #334, .T. ) ;
#1064 = ORIENTED_EDGE ( 'NONE', *, *, #209, .T. ) ;
#1065 = DIRECTION ( 'NONE',  ( 1.000000000000000000, 0.000000000000000000, -0.000000000000000000 ) ) ;
#1066 = ORIENTED_EDGE ( 'NONE', *, *, #386, .T. ) ;
#1067 = PLANE ( 'NONE',  #967 ) ;
#1068 = EDGE_LOOP ( 'NONE', ( #300, #878, #1246, #57 ) ) ;
#1069 = ORIENTED_EDGE ( 'NONE', *, *, #922, .T. ) ;
#1070 = DIRECTION ( 'NONE',  ( 1.000000000000000000, 0.000000000000000000, 0.000000000000000000 ) ) ;
#1071 = ORIENTED_EDGE ( 'NONE', *, *, #23, .F. ) ;
#1072 = DIRECTION ( 'NONE',  ( -1.000000000000000000, 0.000000000000000000, 0.000000000000000000 ) ) ;
#1073 = DIRECTION ( 'NONE',  ( -1.000000000000000000, 0.000000000000000000, -0.000000000000000000 ) ) ;
#1074 = PRESENTATION_STYLE_ASSIGNMENT (( #1228 ) ) ;
#1075 = ADVANCED_FACE ( 'NONE', ( #149 ), #548, .T. ) ;
#1076 = VERTEX_POINT ( 'NONE', #1239 ) ;
#1077 = AXIS2_PLACEMENT_3D ( 'NONE', #1053, #738, #552 ) ;
#1078 = ADVANCED_FACE ( 'NONE', ( #750 ), #1143, .T. ) ;
#1079 = AXIS2_PLACEMENT_3D ( 'NONE', #383, #1171, #492 ) ;
#1080 = CARTESIAN_POINT ( 'NONE',  ( 0.7600000000000001199, 1.000000000000000000, -0.3999999999999998002 ) ) ;
#1081 = CARTESIAN_POINT ( 'NONE',  ( 0.8000000000000000444, 1.000000000000000000, 0.4000000000000000777 ) ) ;
#1082 = CARTESIAN_POINT ( 'NONE',  ( 0.4999999999881765689, 0.9866666666666666918, 0.3599999999999994871 ) ) ;
#1083 = VECTOR ( 'NONE', #638, 1000.000000000000000 ) ;
#1084 = ORIENTED_EDGE ( 'NONE', *, *, #344, .T. ) ;
#1085 = DIRECTION ( 'NONE',  ( 0.000000000000000000, 1.000000000000000000, 0.000000000000000000 ) ) ;
#1086 = PLANE ( 'NONE',  #45 ) ;
#1087 = LINE ( 'NONE', #203, #1256 ) ;
#1088 = LINE ( 'NONE', #19, #55 ) ;
#1089 = VECTOR ( 'NONE', #723, 1000.000000000000000 ) ;
#1090 = ORIENTED_EDGE ( 'NONE', *, *, #1244, .T. ) ;
#1091 = CARTESIAN_POINT ( 'NONE',  ( 0.5000000000000002220, 1.000000000000000000, -0.3999999999999998002 ) ) ;
#1092 = EDGE_CURVE ( 'NONE', #583, #1263, #1182, .T. ) ;
#1093 = ORIENTED_EDGE ( 'NONE', *, *, #1207, .T. ) ;
#1094 = LINE ( 'NONE', #1080, #1196 ) ;
#1095 = PLANE ( 'NONE',  #473 ) ;
#1096 = FACE_OUTER_BOUND ( 'NONE', #486, .T. ) ;
#1097 = ORIENTED_EDGE ( 'NONE', *, *, #337, .T. ) ;
#1098 = DIRECTION ( 'NONE',  ( -2.710505431213761578E-16, 0.000000000000000000, 1.000000000000000000 ) ) ;
#1099 = STYLED_ITEM ( 'NONE', ( #672 ), #168 ) ;
#1100 = AXIS2_PLACEMENT_3D ( 'NONE', #979, #391, #970 ) ;
#1101 = DIRECTION ( 'NONE',  ( -1.355252715606880789E-16, 0.000000000000000000, -1.000000000000000000 ) ) ;
#1102 = CARTESIAN_POINT ( 'NONE',  ( 0.000000000000000000, 0.000000000000000000, 0.3600000000000000977 ) ) ;
#1103 = DIRECTION ( 'NONE',  ( -1.000000000000000000, 0.000000000000000000, 0.000000000000000000 ) ) ;
#1104 = ORIENTED_EDGE ( 'NONE', *, *, #1117, .T. ) ;
#1105 = EDGE_CURVE ( 'NONE', #263, #606, #307, .T. ) ;
#1106 = CARTESIAN_POINT ( 'NONE',  ( -0.8000000000000000444, 0.03999999999999999389, 0.3600000000000000977 ) ) ;
#1107 = DIRECTION ( 'NONE',  ( -1.000000000000000000, 0.000000000000000000, 0.000000000000000000 ) ) ;
#1108 = FILL_AREA_STYLE_COLOUR ( '', #44 ) ;
#1109 = FACE_OUTER_BOUND ( 'NONE', #1169, .T. ) ;
#1110 = ORIENTED_EDGE ( 'NONE', *, *, #887, .F. ) ;
#1111 = DIRECTION ( 'NONE',  ( -1.000000000000000000, -0.000000000000000000, -0.000000000000000000 ) ) ;
#1112 = DIRECTION ( 'NONE',  ( 0.000000000000000000, -1.000000000000000000, -0.000000000000000000 ) ) ;
#1113 = SURFACE_STYLE_FILL_AREA ( #925 ) ;
#1114 = VERTEX_POINT ( 'NONE', #95 ) ;
#1115 = EDGE_CURVE ( 'NONE', #669, #797, #111, .T. ) ;
#1116 = CARTESIAN_POINT ( 'NONE',  ( 0.8000000000000001554, 0.03999999999999999389, -0.3999999999999998002 ) ) ;
#1117 = EDGE_CURVE ( 'NONE', #565, #425, #395, .T. ) ;
#1118 = LINE ( 'NONE', #1218, #648 ) ;
#1119 = EDGE_CURVE ( 'NONE', #236, #425, #879, .T. ) ;
#1120 = VECTOR ( 'NONE', #399, 1000.000000000000000 ) ;
#1121 = CARTESIAN_POINT ( 'NONE',  ( -0.8000000000000000444, 0.03999999999999999389, 0.4000000000000000777 ) ) ;
#1122 = VECTOR ( 'NONE', #328, 1000.000000000000000 ) ;
#1123 = DIRECTION ( 'NONE',  ( 0.000000000000000000, 0.000000000000000000, -1.000000000000000000 ) ) ;
#1124 = DIRECTION ( 'NONE',  ( 0.000000000000000000, 0.000000000000000000, 1.000000000000000000 ) ) ;
#1125 = LINE ( 'NONE', #146, #431 ) ;
#1126 =( NAMED_UNIT ( * ) SI_UNIT ( $, .STERADIAN. ) SOLID_ANGLE_UNIT ( ) );
#1127 = VERTEX_POINT ( 'NONE', #798 ) ;
#1128 = FACE_OUTER_BOUND ( 'NONE', #495, .T. ) ;
#1129 = CYLINDRICAL_SURFACE ( 'NONE', #456, 0.03999999999999999389 ) ;
#1130 = LINE ( 'NONE', #1121, #499 ) ;
#1131 = CARTESIAN_POINT ( 'NONE',  ( 0.7600000000000000089, 1.000000000000000000, 0.3600000000000000977 ) ) ;
#1132 = EDGE_LOOP ( 'NONE', ( #777, #1062, #10 ) ) ;
#1133 = CYLINDRICAL_SURFACE ( 'NONE', #523, 0.03999999999999999389 ) ;
#1134 = ORIENTED_EDGE ( 'NONE', *, *, #51, .F. ) ;
#1135 = AXIS2_PLACEMENT_3D ( 'NONE', #665, #265, #158 ) ;
#1136 = ADVANCED_FACE ( 'NONE', ( #1200 ), #685, .T. ) ;
#1137 = LINE ( 'NONE', #342, #503 ) ;
#1138 = CARTESIAN_POINT ( 'NONE',  ( 500000.0000000000582, 0.03999999999999999389, -0.3866666667100345789 ) ) ;
#1139 = VECTOR ( 'NONE', #624, 1000.000000000000000 ) ;
#1140 = CARTESIAN_POINT ( 'NONE',  ( -0.7600000000000001199, 0.03999999999999999389, -0.3999999999999998002 ) ) ;
#1141 = ORIENTED_EDGE ( 'NONE', *, *, #278, .F. ) ;
#1142 = ORIENTED_EDGE ( 'NONE', *, *, #719, .F. ) ;
#1143 = CYLINDRICAL_SURFACE ( 'NONE', #115, 0.03999999999999999389 ) ;
#1144 = COLOUR_RGB ( '',0.7921568627450980005, 0.8196078431372548767, 0.9333333333333333481 ) ;
#1145 = LINE ( 'NONE', #1058, #968 ) ;
#1146 = SURFACE_STYLE_FILL_AREA ( #1029 ) ;
#1147 = ORIENTED_EDGE ( 'NONE', *, *, #927, .T. ) ;
#1148 = EDGE_LOOP ( 'NONE', ( #728, #759, #895, #365 ) ) ;
#1149 = EDGE_CURVE ( 'NONE', #597, #1048, #657, .T. ) ;
#1150 = CARTESIAN_POINT ( 'NONE',  ( 0.4999999999881765689, 0.03999999999999999389, -0.3866666666666665475 ) ) ;
#1151 = DIRECTION ( 'NONE',  ( 2.710505431213761578E-16, 0.000000000000000000, -1.000000000000000000 ) ) ;
#1152 = ADVANCED_FACE ( 'NONE', ( #1109 ), #622, .T. ) ;
#1153 = EDGE_LOOP ( 'NONE', ( #838, #862, #488, #1134 ) ) ;
#1154 = CIRCLE ( 'NONE', #414, 0.03999999999999999389 ) ;
#1155 = AXIS2_PLACEMENT_3D ( 'NONE', #770, #1072, #891 ) ;
#1156 = ORIENTED_EDGE ( 'NONE', *, *, #1046, .F. ) ;
#1157 = CIRCLE ( 'NONE', #3, 0.03999999999999999389 ) ;
#1158 = PLANE ( 'NONE',  #1241 ) ;
#1159 = VERTEX_POINT ( 'NONE', #222 ) ;
#1160 = CYLINDRICAL_SURFACE ( 'NONE', #1018, 0.03999999999999999389 ) ;
#1161 = ORIENTED_EDGE ( 'NONE', *, *, #1115, .T. ) ;
#1162 = ORIENTED_EDGE ( 'NONE', *, *, #70, .T. ) ;
#1163 = CARTESIAN_POINT ( 'NONE',  ( 0.5000000000000002220, 0.03999999999999999389, -0.3599999999999998201 ) ) ;
#1164 = CARTESIAN_POINT ( 'NONE',  ( -0.7600000000000000089, 0.9600000000000000755, 0.4000000000000000777 ) ) ;
#1165 = EDGE_CURVE ( 'NONE', #1263, #181, #326, .T. ) ;
#1166 = AXIS2_PLACEMENT_3D ( 'NONE', #693, #905, #494 ) ;
#1167 = CARTESIAN_POINT ( 'NONE',  ( 0.4999999999881765689, 0.03999999999999999389, -0.3599999999999999312 ) ) ;
#1168 =( NAMED_UNIT ( * ) PLANE_ANGLE_UNIT ( ) SI_UNIT ( $, .RADIAN. ) );
#1169 = EDGE_LOOP ( 'NONE', ( #573, #977, #83 ) ) ;
#1170 = ADVANCED_FACE ( 'NONE', ( #1096 ), #789, .F. ) ;
#1171 = DIRECTION ( 'NONE',  ( 1.000000000000000000, 0.000000000000000000, -8.673617379884036705E-17 ) ) ;
#1172 = ORIENTED_EDGE ( 'NONE', *, *, #278, .T. ) ;
#1173 = DIRECTION ( 'NONE',  ( -1.000000000000000000, -0.000000000000000000, -0.000000000000000000 ) ) ;
#1174 = EDGE_LOOP ( 'NONE', ( #510, #387, #373, #865 ) ) ;
#1175 = CIRCLE ( 'NONE', #631, 0.03999999999999999389 ) ;
#1176 = DIRECTION ( 'NONE',  ( -0.000000000000000000, 1.000000000000000000, -0.000000000000000000 ) ) ;
#1177 = AXIS2_PLACEMENT_3D ( 'NONE', #556, #943, #1243 ) ;
#1178 = AXIS2_PLACEMENT_3D ( 'NONE', #1052, #955, #74 ) ;
#1179 = ORIENTED_EDGE ( 'NONE', *, *, #1207, .F. ) ;
#1180 = CARTESIAN_POINT ( 'NONE',  ( 500000.0000000000582, 0.9866666666666666918, -0.3600000000433679626 ) ) ;
#1181 = EDGE_LOOP ( 'NONE', ( #698, #906, #690, #758 ) ) ;
#1182 = LINE ( 'NONE', #299, #231 ) ;
#1183 = ORIENTED_EDGE ( 'NONE', *, *, #182, .T. ) ;
#1184 = DIRECTION ( 'NONE',  ( 1.000000000000000000, 0.000000000000000000, 2.710505431213761578E-16 ) ) ;
#1185 = ORIENTED_EDGE ( 'NONE', *, *, #1247, .T. ) ;
#1186 = DIRECTION ( 'NONE',  ( 1.000000000000000000, 0.000000000000000000, -1.355252715606880789E-16 ) ) ;
#1187 = CARTESIAN_POINT ( 'NONE',  ( 0.4999999999881765689, 0.9866666666666666918, -0.3600000001788931092 ) ) ;
#1188 = DIRECTION ( 'NONE',  ( 0.000000000000000000, 0.000000000000000000, 1.000000000000000000 ) ) ;
#1189 = ORIENTED_EDGE ( 'NONE', *, *, #1210, .T. ) ;
#1190 = DIRECTION ( 'NONE',  ( 1.000000000000000000, 0.000000000000000000, 2.710505431213761578E-16 ) ) ;
#1191 = CARTESIAN_POINT ( 'NONE',  ( -0.7600000000000001199, 1.000000000000000000, -0.3599999999999998201 ) ) ;
#1192 = ADVANCED_FACE ( 'NONE', ( #609 ), #312, .F. ) ;
#1193 = VERTEX_POINT ( 'NONE', #1082 ) ;
#1194 = EDGE_LOOP ( 'NONE', ( #846, #1236, #314 ) ) ;
#1195 = DIRECTION ( 'NONE',  ( -1.000000000000000000, -0.000000000000000000, 8.673617379884036705E-17 ) ) ;
#1196 = VECTOR ( 'NONE', #498, 1000.000000000000000 ) ;
#1197 = DIRECTION ( 'NONE',  ( 1.355252715606880789E-16, 0.000000000000000000, -1.000000000000000000 ) ) ;
#1198 = CIRCLE ( 'NONE', #790, 0.03999999999999999389 ) ;
#1199 = CARTESIAN_POINT ( 'NONE',  ( 0.5000000000000002220, 1.000000000000000000, -0.3599999999999998201 ) ) ;
#1200 = FACE_OUTER_BOUND ( 'NONE', #20, .T. ) ;
#1201 = ORIENTED_EDGE ( 'NONE', *, *, #512, .F. ) ;
#1202 = AXIS2_PLACEMENT_3D ( 'NONE', #1203, #713, #825 ) ;
#1203 = CARTESIAN_POINT ( 'NONE',  ( -0.5000000000000002220, 1.000000000000000000, -0.3999999999999998002 ) ) ;
#1204 = LINE ( 'NONE', #340, #1122 ) ;
#1205 = FILL_AREA_STYLE_COLOUR ( '', #369 ) ;
#1206 = DIRECTION ( 'NONE',  ( 0.000000000000000000, 0.000000000000000000, -1.000000000000000000 ) ) ;
#1207 = EDGE_CURVE ( 'NONE', #81, #374, #1088, .T. ) ;
#1208 = EDGE_CURVE ( 'NONE', #606, #60, #118, .T. ) ;
#1209 = AXIS2_PLACEMENT_3D ( 'NONE', #515, #998, #8 ) ;
#1210 = EDGE_CURVE ( 'NONE', #424, #969, #596, .T. ) ;
#1211 = CARTESIAN_POINT ( 'NONE',  ( 0.4999999999881765689, 0.01333333333333333245, -0.3599999999999997091 ) ) ;
#1212 = CARTESIAN_POINT ( 'NONE',  ( 0.7600000000000001199, 0.9600000000000000755, 1.029992063861229705E-16 ) ) ;
#1213 = CARTESIAN_POINT ( 'NONE',  ( 0.7600000000000001199, 0.9600000000000000755, -0.3599999999999998201 ) ) ;
#1214 = DIRECTION ( 'NONE',  ( 0.000000000000000000, -1.000000000000000000, 0.000000000000000000 ) ) ;
#1215 = ORIENTED_EDGE ( 'NONE', *, *, #623, .F. ) ;
#1216 = ADVANCED_FACE ( 'NONE', ( #204 ), #1277, .F. ) ;
#1217 = LINE ( 'NONE', #720, #1089 ) ;
#1218 = CARTESIAN_POINT ( 'NONE',  ( -0.7600000000000001199, 0.000000000000000000, 1.029992063861229705E-16 ) ) ;
#1219 = CIRCLE ( 'NONE', #544, 0.03999999999999999389 ) ;
#1220 =( NAMED_UNIT ( * ) PLANE_ANGLE_UNIT ( ) SI_UNIT ( $, .RADIAN. ) );
#1221 =( NAMED_UNIT ( * ) PLANE_ANGLE_UNIT ( ) SI_UNIT ( $, .RADIAN. ) );
#1222 = AXIS2_PLACEMENT_3D ( 'NONE', #659, #1225, #735 ) ;
#1223 = AXIS2_PLACEMENT_3D ( 'NONE', #361, #851, #840 ) ;
#1224 = CIRCLE ( 'NONE', #346, 0.03999999999999999389 ) ;
#1225 = DIRECTION ( 'NONE',  ( 1.000000000000000000, 0.000000000000000000, 2.710505431213761578E-16 ) ) ;
#1226 = FACE_OUTER_BOUND ( 'NONE', #1153, .T. ) ;
#1227 = CARTESIAN_POINT ( 'NONE',  ( 0.8000000000000001554, 1.000000000000000000, -0.3599999999999998201 ) ) ;
#1228 = SURFACE_STYLE_USAGE ( .BOTH. , #49 ) ;
#1229 = CARTESIAN_POINT ( 'NONE',  ( 0.7600000000000000089, 1.000000000000000000, 0.4000000000000000777 ) ) ;
#1230 = ORIENTED_EDGE ( 'NONE', *, *, #568, .F. ) ;
#1231 = DIRECTION ( 'NONE',  ( 0.000000000000000000, 0.000000000000000000, 1.000000000000000000 ) ) ;
#1232 = ADVANCED_FACE ( 'NONE', ( #218 ), #1024, .T. ) ;
#1233 = ORIENTED_EDGE ( 'NONE', *, *, #921, .F. ) ;
#1234 = FILL_AREA_STYLE ('',( #835 ) ) ;
#1235 = FACE_OUTER_BOUND ( 'NONE', #321, .T. ) ;
#1236 = ORIENTED_EDGE ( 'NONE', *, *, #289, .T. ) ;
#1237 = ORIENTED_EDGE ( 'NONE', *, *, #660, .T. ) ;
#1238 = EDGE_LOOP ( 'NONE', ( #1215, #958, #608, #261 ) ) ;
#1239 = CARTESIAN_POINT ( 'NONE',  ( -0.7600000000000000089, 1.000000000000000000, 0.3600000000000000977 ) ) ;
#1240 = CARTESIAN_POINT ( 'NONE',  ( 0.8000000000000000444, 0.9600000000000000755, 0.3600000000000000977 ) ) ;
#1241 = AXIS2_PLACEMENT_3D ( 'NONE', #496, #275, #591 ) ;
#1242 = VERTEX_POINT ( 'NONE', #39 ) ;
#1243 = DIRECTION ( 'NONE',  ( -1.000000000000000000, 0.000000000000000000, 0.000000000000000000 ) ) ;
#1244 = EDGE_CURVE ( 'NONE', #740, #886, #911, .T. ) ;
#1245 = EDGE_LOOP ( 'NONE', ( #1071, #1147, #687, #405 ) ) ;
#1246 = ORIENTED_EDGE ( 'NONE', *, *, #833, .F. ) ;
#1247 = EDGE_CURVE ( 'NONE', #1258, #81, #6, .T. ) ;
#1248 = VECTOR ( 'NONE', #933, 1000.000000000000000 ) ;
#1249 = CARTESIAN_POINT ( 'NONE',  ( -0.7600000000000000089, 0.03999999999999999389, 0.3600000000000000977 ) ) ;
#1250 = DIRECTION ( 'NONE',  ( 1.000000000000000000, -0.000000000000000000, -2.710505431213761578E-16 ) ) ;
#1251 = EDGE_LOOP ( 'NONE', ( #229, #971, #1000, #539 ) ) ;
#1252 = VERTEX_POINT ( 'NONE', #418 ) ;
#1253 = EDGE_CURVE ( 'NONE', #1127, #152, #293, .T. ) ;
#1254 = LINE ( 'NONE', #444, #611 ) ;
#1255 = FACE_OUTER_BOUND ( 'NONE', #842, .T. ) ;
#1256 = VECTOR ( 'NONE', #110, 1000.000000000000000 ) ;
#1257 = ORIENTED_EDGE ( 'NONE', *, *, #337, .F. ) ;
#1258 = VERTEX_POINT ( 'NONE', #28 ) ;
#1259 = SPHERICAL_SURFACE ( 'NONE', #705, 0.04000000000000000083 ) ;
#1260 = ORIENTED_EDGE ( 'NONE', *, *, #937, .T. ) ;
#1261 = CARTESIAN_POINT ( 'NONE',  ( 0.000000000000000000, 0.000000000000000000, -0.3599999999999998201 ) ) ;
#1262 = AXIS2_PLACEMENT_3D ( 'NONE', #976, #960, #896 ) ;
#1263 = VERTEX_POINT ( 'NONE', #823 ) ;
#1264 = ORIENTED_EDGE ( 'NONE', *, *, #517, .T. ) ;
#1265 = AXIS2_PLACEMENT_3D ( 'NONE', #1033, #1231, #345 ) ;
#1266 = LINE ( 'NONE', #1180, #1280 ) ;
#1267 = AXIS2_PLACEMENT_3D ( 'NONE', #34, #1214, #547 ) ;
#1268 = CYLINDRICAL_SURFACE ( 'NONE', #1054, 0.02666666666666664756 ) ;
#1269 = CARTESIAN_POINT ( 'NONE',  ( 0.000000000000000000, 0.000000000000000000, 0.000000000000000000 ) ) ;
#1270 = ADVANCED_FACE ( 'NONE', ( #629 ), #816, .T. ) ;
#1271 = ORIENTED_EDGE ( 'NONE', *, *, #1117, .F. ) ;
#1272 = CARTESIAN_POINT ( 'NONE',  ( -0.8000000000000000444, 1.000000000000000000, 0.3600000000000000422 ) ) ;
#1273 = ORIENTED_EDGE ( 'NONE', *, *, #1244, .F. ) ;
#1274 = FACE_OUTER_BOUND ( 'NONE', #1148, .T. ) ;
#1275 = APPLICATION_CONTEXT ( 'automotive_design' ) ;
#1276 = CARTESIAN_POINT ( 'NONE',  ( -0.8000000000000000444, 1.000000000000000000, 0.4000000000000000777 ) ) ;
#1277 = PLANE ( 'NONE',  #223 ) ;
#1278 = CIRCLE ( 'NONE', #167, 0.03999999999999999389 ) ;
#1279 = ORIENTED_EDGE ( 'NONE', *, *, #882, .T. ) ;
#1280 = VECTOR ( 'NONE', #691, 1000.000000000000000 ) ;
ENDSEC;
END-ISO-10303-21;
